<?xml version="1.0" encoding="us-ascii" standalone="no"?><svg xmlns="http://www.w3.org/2000/svg" xmlns:xlink="http://www.w3.org/1999/xlink" contentStyleType="text/css" height="562px" preserveAspectRatio="none" style="width:508px;height:562px;background:#FFFFFF;" version="1.1" viewBox="0 0 508 562" width="508px" zoomAndPan="magnify"><defs/><g><ellipse cx="146" cy="20" fill="#222222" rx="10" ry="10" style="stroke:#222222;stroke-width:1.0;"/><path d="M279.5,46.167 L279.5,70.1328 L259.5,74.1328 L279.5,78.1328 L279.5,102.0986 A0,0 0 0 0 279.5,102.0986 L496.5,102.0986 A0,0 0 0 0 496.5,102.0986 L496.5,56.167 L486.5,46.167 L279.5,46.167 A0,0 0 0 0 279.5,46.167 " fill="#FEFFDD" style="stroke:#181818;stroke-width:0.5;"/><path d="M486.5,46.167 L486.5,56.167 L496.5,56.167 L486.5,46.167 " fill="#FEFFDD" style="stroke:#181818;stroke-width:0.5;"/><text fill="#000000" font-family="sans-serif" font-size="13" lengthAdjust="spacing" textLength="196" x="285.5" y="63.7354">Pass information about created</text><text fill="#000000" font-family="sans-serif" font-size="13" lengthAdjust="spacing" textLength="163" x="285.5" y="79.0459">issues &amp; vulnerabilities to</text><text fill="#000000" font-family="sans-serif" font-size="13" font-weight="bold" lengthAdjust="spacing" textLength="178" x="285.5" y="94.3564">dependencies_update.yml</text><rect fill="#F1F1F1" height="48.2656" rx="12.5" ry="12.5" style="stroke:#181818;stroke-width:0.5;" width="227" x="32.5" y="50"/><text fill="#000000" font-family="sans-serif" font-size="12" font-weight="bold" lengthAdjust="spacing" textLength="152" x="42.5" y="71.6016">dependencies_check.yml</text><text fill="#000000" font-family="sans-serif" font-size="12" lengthAdjust="spacing" textLength="51" x="198.5" y="71.6016">workflow</text><text fill="#000000" font-family="sans-serif" font-size="12" lengthAdjust="spacing" textLength="92" x="42.5" y="85.7344">(triggered daily)</text><rect fill="none" height="341.0938" style="stroke:#000000;stroke-width:1.5;" width="270" x="11" y="168.6865"/><path d="M271,168.6865 L271,178.1748 L261,188.1748 L11,188.1748 " fill="none" style="stroke:#000000;stroke-width:1.5;"/><text fill="#000000" font-family="sans-serif" font-size="14" font-weight="bold" lengthAdjust="spacing" textLength="183" x="14" y="183.2217">dependencies_update.yml</text><text fill="#000000" font-family="sans-serif" font-size="14" lengthAdjust="spacing" textLength="63" x="201" y="183.2217">workflow</text><rect fill="none" height="190.8867" style="stroke:#000000;stroke-width:1.5;" width="196" x="48" y="198.6279"/><path d="M234,198.6279 L234,208.1162 L224,218.1162 L48,218.1162 " fill="none" style="stroke:#000000;stroke-width:1.5;"/><text fill="#000000" font-family="sans-serif" font-size="14" lengthAdjust="spacing" textLength="17" x="51" y="213.1631">PK</text><text fill="#000000" font-family="sans-serif" font-size="14" font-weight="bold" lengthAdjust="spacing" textLength="155" x="72" y="213.1631">update-dependencies</text><rect fill="#F1F1F1" height="34.1328" rx="12.5" ry="12.5" style="stroke:#181818;stroke-width:0.5;" width="167" x="62.5" y="235.1162"/><text fill="#000000" font-family="sans-serif" font-size="12" lengthAdjust="spacing" textLength="147" x="72.5" y="256.7178">Increment project version</text><rect fill="#F1F1F1" height="34.1328" rx="12.5" ry="12.5" style="stroke:#181818;stroke-width:0.5;" width="147" x="72.5" y="289.249"/><text fill="#000000" font-family="sans-serif" font-size="12" lengthAdjust="spacing" textLength="127" x="82.5" y="310.8506">Update dependencies</text><rect fill="#F1F1F1" height="34.1328" rx="12.5" ry="12.5" style="stroke:#181818;stroke-width:0.5;" width="135" x="78.5" y="343.3818"/><text fill="#000000" font-family="sans-serif" font-size="12" lengthAdjust="spacing" textLength="115" x="88.5" y="364.9834">Generate changelog</text><rect fill="#F1F1F1" height="34.1328" rx="12.5" ry="12.5" style="stroke:#181818;stroke-width:0.5;" width="131" x="80.5" y="409.5146"/><text fill="#000000" font-family="sans-serif" font-size="12" lengthAdjust="spacing" textLength="111" x="90.5" y="431.1162">Create pull request</text><rect fill="#F1F1F1" height="34.1328" rx="12.5" ry="12.5" style="stroke:#181818;stroke-width:0.5;" width="114" x="89" y="463.6475"/><text fill="#000000" font-family="sans-serif" font-size="12" lengthAdjust="spacing" textLength="94" x="99" y="485.249">Send notification</text><polygon fill="#F1F1F1" points="59.5,122.0986,232.5,122.0986,244.5,134.0986,232.5,146.0986,59.5,146.0986,47.5,134.0986,59.5,122.0986" style="stroke:#181818;stroke-width:0.5;"/><text fill="#000000" font-family="sans-serif" font-size="11" lengthAdjust="spacing" textLength="18" x="150" y="156.7334">yes</text><text fill="#000000" font-family="sans-serif" font-size="11" lengthAdjust="spacing" textLength="173" x="59.5" y="138.2559">vulnerable dependencies found?</text><text fill="#000000" font-family="sans-serif" font-size="11" lengthAdjust="spacing" textLength="14" x="244.5" y="131.7783">no</text><ellipse cx="280.5" cy="134.0986" fill="none" rx="11" ry="11" style="stroke:#222222;stroke-width:1.0;"/><ellipse cx="280.5" cy="134.0986" fill="#222222" rx="6" ry="6" style="stroke:#222222;stroke-width:1.0;"/><ellipse cx="146" cy="540.7803" fill="none" rx="11" ry="11" style="stroke:#222222;stroke-width:1.0;"/><ellipse cx="146" cy="540.7803" fill="#222222" rx="6" ry="6" style="stroke:#222222;stroke-width:1.0;"/><line style="stroke:#181818;stroke-width:1.0;" x1="146" x2="146" y1="30" y2="50"/><polygon fill="#181818" points="142,40,146,50,150,40,146,44" style="stroke:#181818;stroke-width:1.0;"/><line style="stroke:#181818;stroke-width:1.0;" x1="146" x2="146" y1="269.249" y2="289.249"/><polygon fill="#181818" points="142,279.249,146,289.249,150,279.249,146,283.249" style="stroke:#181818;stroke-width:1.0;"/><line style="stroke:#181818;stroke-width:1.0;" x1="146" x2="146" y1="323.3818" y2="343.3818"/><polygon fill="#181818" points="142,333.3818,146,343.3818,150,333.3818,146,337.3818" style="stroke:#181818;stroke-width:1.0;"/><line style="stroke:#181818;stroke-width:1.0;" x1="146" x2="146" y1="377.5146" y2="409.5146"/><polygon fill="#181818" points="142,399.5146,146,409.5146,150,399.5146,146,403.5146" style="stroke:#181818;stroke-width:1.0;"/><line style="stroke:#181818;stroke-width:1.0;" x1="146" x2="146" y1="443.6475" y2="463.6475"/><polygon fill="#181818" points="142,453.6475,146,463.6475,150,453.6475,146,457.6475" style="stroke:#181818;stroke-width:1.0;"/><line style="stroke:#181818;stroke-width:1.0;" x1="146" x2="146" y1="146.0986" y2="235.1162"/><polygon fill="#181818" points="142,225.1162,146,235.1162,150,225.1162,146,229.1162" style="stroke:#181818;stroke-width:1.0;"/><line style="stroke:#181818;stroke-width:1.0;" x1="244.5" x2="269.5" y1="134.0986" y2="134.0986"/><polygon fill="#181818" points="259.5,130.0986,269.5,134.0986,259.5,138.0986,263.5,134.0986" style="stroke:#181818;stroke-width:1.0;"/><line style="stroke:#181818;stroke-width:1.0;" x1="146" x2="146" y1="497.7803" y2="529.7803"/><polygon fill="#181818" points="142,519.7803,146,529.7803,150,519.7803,146,523.7803" style="stroke:#181818;stroke-width:1.0;"/><line style="stroke:#181818;stroke-width:1.0;" x1="146" x2="146" y1="98.2656" y2="122.0986"/><polygon fill="#181818" points="142,112.0986,146,122.0986,150,112.0986,146,116.0986" style="stroke:#181818;stroke-width:1.0;"/><!--SRC=[VL0nJiGm4EpzYgrG4WaUa2ieA12YEUb4ZNps9Z7dU8EzlbD-ppeXt451P-_CxCvCOXrPjKrZSS9WCHY7wTqCQ4uFy-YR1YuKJvsdYweukhx7Y1QiTdwkToeG8yXqO0Mmroc12nt5KREZ0Ff8cS54r8nM22wbZ0dku9nzmAYFpZkMSy0aw1yBUR8YMpqe6KEvfLnNRMAFS2k0ZdAmZpNmW06g6LCjI_j8UVflzJKUm4RVlufY9TtV2eMzi03Qbo2nHWmCKwGFD0ndZ4b2xpR6swB_PV47UyQIG50pwD2Zftw5Iip5ml9hdvRcOChUGyHFwOvNNdluBiHrpYnTb_bLZJuXL85A0ubfAlsvJfNd5m00]--></g></svg>