<?xml version="1.0" encoding="us-ascii" standalone="no"?><svg xmlns="http://www.w3.org/2000/svg" xmlns:xlink="http://www.w3.org/1999/xlink" contentStyleType="text/css" height="802px" preserveAspectRatio="none" style="width:602px;height:802px;background:#FFFFFF;" version="1.1" viewBox="0 0 602 802" width="602px" zoomAndPan="magnify"><defs/><g><ellipse cx="170" cy="20" fill="#222222" rx="10" ry="10" style="stroke:#222222;stroke-width:1.0;"/><path d="M303.5,46.167 L303.5,70.1328 L283.5,74.1328 L303.5,78.1328 L303.5,102.0986 A0,0 0 0 0 303.5,102.0986 L520.5,102.0986 A0,0 0 0 0 520.5,102.0986 L520.5,56.167 L510.5,46.167 L303.5,46.167 A0,0 0 0 0 303.5,46.167 " fill="#FEFFDD" style="stroke:#181818;stroke-width:0.5;"/><path d="M510.5,46.167 L510.5,56.167 L520.5,56.167 L510.5,46.167 " fill="#FEFFDD" style="stroke:#181818;stroke-width:0.5;"/><text fill="#000000" font-family="sans-serif" font-size="13" lengthAdjust="spacing" textLength="196" x="309.5" y="63.7354">Pass information about created</text><text fill="#000000" font-family="sans-serif" font-size="13" lengthAdjust="spacing" textLength="163" x="309.5" y="79.0459">issues &amp; vulnerabilities to</text><text fill="#000000" font-family="sans-serif" font-size="13" font-weight="bold" lengthAdjust="spacing" textLength="178" x="309.5" y="94.3564">dependencies_update.yml</text><rect fill="#F1F1F1" height="48.2656" rx="12.5" ry="12.5" style="stroke:#181818;stroke-width:0.5;" width="227" x="56.5" y="50"/><text fill="#000000" font-family="sans-serif" font-size="12" font-weight="bold" lengthAdjust="spacing" textLength="152" x="66.5" y="71.6016">dependencies_check.yml</text><text fill="#000000" font-family="sans-serif" font-size="12" lengthAdjust="spacing" textLength="51" x="222.5" y="71.6016">workflow</text><text fill="#000000" font-family="sans-serif" font-size="12" lengthAdjust="spacing" textLength="92" x="66.5" y="85.7344">(triggered daily)</text><rect fill="none" height="581.2832" style="stroke:#000000;stroke-width:1.5;" width="580.5" x="11" y="168.2334"/><path d="M271,168.2334 L271,177.7217 L261,187.7217 L11,187.7217 " fill="none" style="stroke:#000000;stroke-width:1.5;"/><text fill="#000000" font-family="sans-serif" font-size="14" font-weight="bold" lengthAdjust="spacing" textLength="183" x="14" y="182.7686">dependencies_update.yml</text><text fill="#000000" font-family="sans-serif" font-size="14" lengthAdjust="spacing" textLength="63" x="201" y="182.7686">workflow</text><path d="M443.5,462.4307 L443.5,503.0518 L571.5,503.0518 L571.5,472.4307 L561.5,462.4307 L443.5,462.4307 " fill="#FEFFDD" style="stroke:#181818;stroke-width:0.5;"/><path d="M561.5,462.4307 L561.5,472.4307 L571.5,472.4307 L561.5,462.4307 " fill="#FEFFDD" style="stroke:#181818;stroke-width:0.5;"/><text fill="#000000" font-family="sans-serif" font-size="13" lengthAdjust="spacing" textLength="107" x="449.5" y="479.999">GitHub Workflow</text><text fill="#000000" font-family="sans-serif" font-size="13" lengthAdjust="spacing" textLength="100" x="449.5" y="495.3096">generated by PK</text><rect fill="#F1F1F1" height="34.1328" rx="12.5" ry="12.5" style="stroke:#181818;stroke-width:0.5;" width="298" x="21" y="204.7217"/><text fill="#000000" font-family="sans-serif" font-size="12" lengthAdjust="spacing" textLength="41" x="31" y="226.3232">Run PK</text><text fill="#000000" font-family="sans-serif" font-size="12" font-weight="bold" lengthAdjust="spacing" textLength="136" x="76" y="226.3232">update-dependencies</text><text fill="#000000" font-family="sans-serif" font-size="12" lengthAdjust="spacing" textLength="93" x="216" y="226.3232">as Maven plugin</text><rect fill="none" height="363.0195" style="stroke:#000000;stroke-width:1.5;" width="331" x="64.5" y="248.8545"/><path d="M250.5,248.8545 L250.5,258.3428 L240.5,268.3428 L64.5,268.3428 " fill="none" style="stroke:#000000;stroke-width:1.5;"/><text fill="#000000" font-family="sans-serif" font-size="14" lengthAdjust="spacing" textLength="17" x="67.5" y="263.3896">PK</text><text fill="#000000" font-family="sans-serif" font-size="14" font-weight="bold" lengthAdjust="spacing" textLength="155" x="88.5" y="263.3896">update-dependencies</text><path d="M287.5,425.7979 L287.5,466.4189 L375.5,466.4189 L375.5,435.7979 L365.5,425.7979 L287.5,425.7979 " fill="#FEFFDD" style="stroke:#181818;stroke-width:0.5;"/><path d="M365.5,425.7979 L365.5,435.7979 L375.5,435.7979 L365.5,425.7979 " fill="#FEFFDD" style="stroke:#181818;stroke-width:0.5;"/><text fill="#000000" font-family="sans-serif" font-size="13" lengthAdjust="spacing" textLength="67" x="293.5" y="443.3662">Implement</text><text fill="#000000" font-family="sans-serif" font-size="13" lengthAdjust="spacing" textLength="31" x="293.5" y="458.6768">in PK</text><rect fill="#F1F1F1" height="34.1328" rx="12.5" ry="12.5" style="stroke:#181818;stroke-width:0.5;" width="167" x="86.5" y="329.3428"/><text fill="#000000" font-family="sans-serif" font-size="12" lengthAdjust="spacing" textLength="147" x="96.5" y="350.9443">Increment project version</text><polygon fill="#F1F1F1" points="86.5,285.3428,253.5,285.3428,265.5,297.3428,253.5,309.3428,86.5,309.3428,74.5,297.3428,86.5,285.3428" style="stroke:#181818;stroke-width:0.5;"/><text fill="#000000" font-family="sans-serif" font-size="11" lengthAdjust="spacing" textLength="167" x="86.5" y="301.5">latest version already released?</text><polygon fill="#F1F1F1" points="170,383.4756,182,395.4756,170,407.4756,158,395.4756,170,383.4756" style="stroke:#181818;stroke-width:0.5;"/><rect fill="#F1F1F1" height="34.1328" rx="12.5" ry="12.5" style="stroke:#181818;stroke-width:0.5;" width="147" x="96.5" y="442.4756"/><text fill="#000000" font-family="sans-serif" font-size="12" lengthAdjust="spacing" textLength="127" x="106.5" y="464.0771">Update dependencies</text><rect fill="#F1F1F1" height="34.1328" rx="12.5" ry="12.5" style="stroke:#181818;stroke-width:0.5;" width="135" x="102.5" y="511.6084"/><text fill="#000000" font-family="sans-serif" font-size="12" lengthAdjust="spacing" textLength="115" x="112.5" y="533.21">Generate changelog</text><rect fill="#F1F1F1" height="34.1328" rx="12.5" ry="12.5" style="stroke:#181818;stroke-width:0.5;" width="79" x="130.5" y="565.7412"/><text fill="#000000" font-family="sans-serif" font-size="12" lengthAdjust="spacing" textLength="59" x="140.5" y="587.3428">Run PK fix</text><path d="M255.5,628.6299 L255.5,644.9404 L235.5,648.9404 L255.5,652.9404 L255.5,669.251 A0,0 0 0 0 255.5,669.251 L433.5,669.251 A0,0 0 0 0 433.5,669.251 L433.5,638.6299 L423.5,628.6299 L255.5,628.6299 A0,0 0 0 0 255.5,628.6299 " fill="#FEFFDD" style="stroke:#181818;stroke-width:0.5;"/><path d="M423.5,628.6299 L423.5,638.6299 L433.5,638.6299 L423.5,628.6299 " fill="#FEFFDD" style="stroke:#181818;stroke-width:0.5;"/><text fill="#000000" font-family="sans-serif" font-size="13" lengthAdjust="spacing" textLength="157" x="261.5" y="646.1982">Needs information about</text><text fill="#000000" font-family="sans-serif" font-size="13" lengthAdjust="spacing" textLength="146" x="261.5" y="661.5088">issues &amp; vulnerabilities</text><rect fill="#F1F1F1" height="34.1328" rx="12.5" ry="12.5" style="stroke:#181818;stroke-width:0.5;" width="131" x="104.5" y="631.874"/><text fill="#000000" font-family="sans-serif" font-size="12" lengthAdjust="spacing" textLength="111" x="114.5" y="653.4756">Create pull request</text><rect fill="#F1F1F1" height="48.2656" rx="12.5" ry="12.5" style="stroke:#181818;stroke-width:0.5;" width="150" x="95" y="689.251"/><text fill="#000000" font-family="sans-serif" font-size="12" lengthAdjust="spacing" textLength="127" x="105" y="710.8525">Send Slack notification</text><text fill="#000000" font-family="sans-serif" font-size="12" lengthAdjust="spacing" textLength="130" x="105" y="724.9854">for success and failure</text><polygon fill="#F1F1F1" points="83.5,122.0986,256.5,122.0986,268.5,134.0986,256.5,146.0986,83.5,146.0986,71.5,134.0986,83.5,122.0986" style="stroke:#181818;stroke-width:0.5;"/><text fill="#000000" font-family="sans-serif" font-size="11" lengthAdjust="spacing" textLength="18" x="174" y="156.7334">yes</text><text fill="#000000" font-family="sans-serif" font-size="11" lengthAdjust="spacing" textLength="173" x="83.5" y="138.2559">vulnerable dependencies found?</text><text fill="#000000" font-family="sans-serif" font-size="11" lengthAdjust="spacing" textLength="14" x="268.5" y="131.7783">no</text><ellipse cx="304.5" cy="134.0986" fill="none" rx="11" ry="11" style="stroke:#222222;stroke-width:1.0;"/><ellipse cx="304.5" cy="134.0986" fill="#222222" rx="6" ry="6" style="stroke:#222222;stroke-width:1.0;"/><ellipse cx="170" cy="780.5166" fill="none" rx="11" ry="11" style="stroke:#222222;stroke-width:1.0;"/><ellipse cx="170" cy="780.5166" fill="#222222" rx="6" ry="6" style="stroke:#222222;stroke-width:1.0;"/><line style="stroke:#181818;stroke-width:1.0;" x1="170" x2="170" y1="30" y2="50"/><polygon fill="#181818" points="166,40,170,50,174,40,170,44" style="stroke:#181818;stroke-width:1.0;"/><line style="stroke:#181818;stroke-width:1.0;" x1="170" x2="170" y1="309.3428" y2="329.3428"/><polygon fill="#181818" points="166,319.3428,170,329.3428,174,319.3428,170,323.3428" style="stroke:#181818;stroke-width:1.0;"/><line style="stroke:#181818;stroke-width:1.0;" x1="265.5" x2="277.5" y1="297.3428" y2="297.3428"/><polygon fill="#181818" points="273.5,336.4092,277.5,346.4092,281.5,336.4092,277.5,340.4092" style="stroke:#181818;stroke-width:1.0;"/><line style="stroke:#181818;stroke-width:1.0;" x1="277.5" x2="277.5" y1="297.3428" y2="395.4756"/><line style="stroke:#181818;stroke-width:1.0;" x1="277.5" x2="182" y1="395.4756" y2="395.4756"/><polygon fill="#181818" points="192,391.4756,182,395.4756,192,399.4756,188,395.4756" style="stroke:#181818;stroke-width:1.0;"/><line style="stroke:#181818;stroke-width:1.0;" x1="170" x2="170" y1="363.4756" y2="383.4756"/><polygon fill="#181818" points="166,373.4756,170,383.4756,174,373.4756,170,377.4756" style="stroke:#181818;stroke-width:1.0;"/><line style="stroke:#181818;stroke-width:1.0;" x1="170" x2="170" y1="407.4756" y2="442.4756"/><polygon fill="#181818" points="166,432.4756,170,442.4756,174,432.4756,170,436.4756" style="stroke:#181818;stroke-width:1.0;"/><line style="stroke:#181818;stroke-width:1.0;" x1="170" x2="170" y1="476.6084" y2="511.6084"/><polygon fill="#181818" points="166,501.6084,170,511.6084,174,501.6084,170,505.6084" style="stroke:#181818;stroke-width:1.0;"/><line style="stroke:#181818;stroke-width:1.0;" x1="170" x2="170" y1="545.7412" y2="565.7412"/><polygon fill="#181818" points="166,555.7412,170,565.7412,174,555.7412,170,559.7412" style="stroke:#181818;stroke-width:1.0;"/><line style="stroke:#181818;stroke-width:1.0;" x1="170" x2="170" y1="238.8545" y2="285.3428"/><polygon fill="#181818" points="166,275.3428,170,285.3428,174,275.3428,170,279.3428" style="stroke:#181818;stroke-width:1.0;"/><line style="stroke:#181818;stroke-width:1.0;" x1="170" x2="170" y1="599.874" y2="631.874"/><polygon fill="#181818" points="166,621.874,170,631.874,174,621.874,170,625.874" style="stroke:#181818;stroke-width:1.0;"/><line style="stroke:#181818;stroke-width:1.0;" x1="170" x2="170" y1="666.0068" y2="689.251"/><polygon fill="#181818" points="166,679.251,170,689.251,174,679.251,170,683.251" style="stroke:#181818;stroke-width:1.0;"/><line style="stroke:#181818;stroke-width:1.0;" x1="170" x2="170" y1="146.0986" y2="204.7217"/><polygon fill="#181818" points="166,194.7217,170,204.7217,174,194.7217,170,198.7217" style="stroke:#181818;stroke-width:1.0;"/><line style="stroke:#181818;stroke-width:1.0;" x1="268.5" x2="293.5" y1="134.0986" y2="134.0986"/><polygon fill="#181818" points="283.5,130.0986,293.5,134.0986,283.5,138.0986,287.5,134.0986" style="stroke:#181818;stroke-width:1.0;"/><line style="stroke:#181818;stroke-width:1.0;" x1="170" x2="170" y1="737.5166" y2="769.5166"/><polygon fill="#181818" points="166,759.5166,170,769.5166,174,759.5166,170,763.5166" style="stroke:#181818;stroke-width:1.0;"/><line style="stroke:#181818;stroke-width:1.0;" x1="170" x2="170" y1="98.2656" y2="122.0986"/><polygon fill="#181818" points="166,112.0986,170,122.0986,174,112.0986,170,116.0986" style="stroke:#181818;stroke-width:1.0;"/><!--SRC=[VLFBJiCm4BpdA_Q4qaZm0Sc10uU24AYYGXoHQwzJKySEVhJaxradRTAM5f_iVSpEpgvzO2vaPL48RD48D5oX_-Hhv9kxhj550JlhDbBRNPO7f-eQ7GeGJEbkLcN61WIohaC6i63UWpBIkeO5PGsmbOq1k4CMK520yZwYXnlOHctGiPNIAb0v29QyPnHYAoXju92H6LAjJCdyaAmHZXD0scZ4_Gp26Wta7VePWTREnlO_wAaze7FIJpfp5HxZ2ZwEWmWL4mDg2bOTB9vxwqWnFSgtQCX1XOTQjyVrgIZpyCAsnBFLiLQcwfC6hjUpziN_S0HuQbgD3Ph9eio1rnapSibS4xWFi4Nd-pbf6f7emA56vf54777A9qFpIz3GElk5VCog9dGbz_VolUTzCfT3N3dVYmPypKoDsjQZQw-ML3_Lg6MlnY3cGxz1q4QjYUCtxL2eBe_h5L5SsC53vrVsxyBybkcvr8nlab59nNkutadWu2FdIElEA4pIPuWE4wM9E6gFa1kRfFJ1jjcWKxh-0W00]--></g></svg>