<?xml version="1.0" encoding="us-ascii" standalone="no"?><svg xmlns="http://www.w3.org/2000/svg" xmlns:xlink="http://www.w3.org/1999/xlink" contentStyleType="text/css" height="828px" preserveAspectRatio="none" style="width:451px;height:828px;background:#FFFFFF;" version="1.1" viewBox="0 0 451 828" width="451px" zoomAndPan="magnify"><defs/><g><path d="M178.5,10 L178.5,26.3105 L158.5,30.3105 L178.5,34.3105 L178.5,50.6211 A0,0 0 0 0 178.5,50.6211 L367.5,50.6211 A0,0 0 0 0 367.5,50.6211 L367.5,20 L357.5,10 L178.5,10 A0,0 0 0 0 178.5,10 " fill="#FEFFDD" style="stroke:#181818;stroke-width:0.5;"/><path d="M357.5,10 L357.5,20 L367.5,20 L357.5,10 " fill="#FEFFDD" style="stroke:#181818;stroke-width:0.5;"/><text fill="#000000" font-family="sans-serif" font-size="13" lengthAdjust="spacing" textLength="138" x="184.5" y="27.5684">Triggered manually or</text><text fill="#000000" font-family="sans-serif" font-size="13" lengthAdjust="spacing" textLength="168" x="184.5" y="42.8789">on pushes to main branch.</text><ellipse cx="148.5" cy="30.3105" fill="#222222" rx="10" ry="10" style="stroke:#222222;stroke-width:1.0;"/><rect fill="none" height="714.4141" style="stroke:#000000;stroke-width:1.5;" width="429" x="11" y="60.6211"/><path d="M169,60.6211 L169,70.1094 L159,80.1094 L11,80.1094 " fill="none" style="stroke:#000000;stroke-width:1.5;"/><text fill="#000000" font-family="sans-serif" font-size="14" font-weight="bold" lengthAdjust="spacing" textLength="81" x="14" y="75.1563">release.yml</text><text fill="#000000" font-family="sans-serif" font-size="14" lengthAdjust="spacing" textLength="63" x="99" y="75.1563">workflow</text><rect fill="#F1F1F1" height="34.1328" rx="12.5" ry="12.5" style="stroke:#181818;stroke-width:0.5;" width="249" x="24" y="97.1094"/><text fill="#000000" font-family="sans-serif" font-size="12" lengthAdjust="spacing" textLength="41" x="34" y="118.7109">Run PK</text><text fill="#000000" font-family="sans-serif" font-size="12" font-weight="bold" lengthAdjust="spacing" textLength="87" x="79" y="118.7109">verify-release</text><text fill="#000000" font-family="sans-serif" font-size="12" lengthAdjust="spacing" textLength="93" x="170" y="118.7109">as Maven plugin</text><rect fill="none" height="244.5186" style="stroke:#000000;stroke-width:1.5;" width="398" x="32" y="141.2422"/><path d="M164,141.2422 L164,150.7305 L154,160.7305 L32,160.7305 " fill="none" style="stroke:#000000;stroke-width:1.5;"/><text fill="#000000" font-family="sans-serif" font-size="14" lengthAdjust="spacing" textLength="17" x="35" y="155.7773">PK</text><text fill="#000000" font-family="sans-serif" font-size="14" font-weight="bold" lengthAdjust="spacing" textLength="101" x="56" y="155.7773">verify-release</text><rect fill="#F1F1F1" height="34.1328" rx="12.5" ry="12.5" style="stroke:#181818;stroke-width:0.5;" width="100" x="98.5" y="228.1182"/><text fill="#000000" font-family="sans-serif" font-size="12" lengthAdjust="spacing" textLength="41" x="108.5" y="249.7197">Run PK</text><text fill="#000000" font-family="sans-serif" font-size="12" font-weight="bold" lengthAdjust="spacing" textLength="35" x="153.5" y="249.7197">verify</text><rect fill="#F1F1F1" height="34.1328" rx="12.5" ry="12.5" style="stroke:#181818;stroke-width:0.5;" width="192" x="52.5" y="282.251"/><text fill="#000000" font-family="sans-serif" font-size="12" lengthAdjust="spacing" textLength="172" x="62.5" y="303.8525">Run additional release checks</text><path d="M265,333.1396 L265,349.4502 L245,353.4502 L265,357.4502 L265,373.7607 A0,0 0 0 0 265,373.7607 L418,373.7607 A0,0 0 0 0 418,373.7607 L418,343.1396 L408,333.1396 L265,333.1396 A0,0 0 0 0 265,333.1396 " fill="#FEFFDD" style="stroke:#181818;stroke-width:0.5;"/><path d="M408,333.1396 L408,343.1396 L418,343.1396 L408,333.1396 " fill="#FEFFDD" style="stroke:#181818;stroke-width:0.5;"/><text fill="#000000" font-family="sans-serif" font-size="13" lengthAdjust="spacing" textLength="132" x="271" y="350.708">Required for creating</text><text fill="#000000" font-family="sans-serif" font-size="13" lengthAdjust="spacing" textLength="116" x="271" y="366.0186">the GitHub release</text><rect fill="#F1F1F1" height="34.1328" rx="12.5" ry="12.5" style="stroke:#181818;stroke-width:0.5;" width="193" x="52" y="336.3838"/><text fill="#000000" font-family="sans-serif" font-size="12" lengthAdjust="spacing" textLength="173" x="62" y="357.9854">Write changelog content to file</text><polygon fill="#F1F1F1" points="76,177.7305,221,177.7305,233,190.6855,221,203.6406,76,203.6406,64,190.6855,76,177.7305" style="stroke:#181818;stroke-width:0.5;"/><text fill="#000000" font-family="sans-serif" font-size="11" lengthAdjust="spacing" textLength="66" x="152.5" y="214.2754">current date</text><text fill="#000000" font-family="sans-serif" font-size="11" lengthAdjust="spacing" textLength="100" x="76" y="188.3652">Check release date</text><text fill="#000000" font-family="sans-serif" font-size="11" lengthAdjust="spacing" textLength="145" x="76" y="201.3203">(allow skipping the release)</text><text fill="#000000" font-family="sans-serif" font-size="11" lengthAdjust="spacing" textLength="87" x="233" y="188.3652">not current date</text><ellipse cx="342" cy="190.6855" fill="none" rx="11" ry="11" style="stroke:#222222;stroke-width:1.0;"/><ellipse cx="342" cy="190.6855" fill="#222222" rx="6" ry="6" style="stroke:#222222;stroke-width:1.0;"/><rect fill="#F1F1F1" height="34.1328" rx="12.5" ry="12.5" style="stroke:#181818;stroke-width:0.5;" width="132" x="82.5" y="405.7607"/><text fill="#000000" font-family="sans-serif" font-size="12" lengthAdjust="spacing" textLength="112" x="92.5" y="427.3623">Run build and tests</text><rect fill="#F1F1F1" height="34.1328" rx="12.5" ry="12.5" style="stroke:#181818;stroke-width:0.5;" width="114" x="91.5" y="459.8936"/><text fill="#000000" font-family="sans-serif" font-size="12" lengthAdjust="spacing" textLength="94" x="101.5" y="481.4951">Send notification</text><rect fill="#F1F1F1" height="34.1328" rx="12.5" ry="12.5" style="stroke:#181818;stroke-width:0.5;" width="119" x="89" y="562.5039"/><text fill="#000000" font-family="sans-serif" font-size="12" lengthAdjust="spacing" textLength="22" x="99" y="584.1055">Run</text><text fill="#000000" font-family="sans-serif" font-size="12" font-weight="bold" lengthAdjust="spacing" textLength="73" x="125" y="584.1055">mvn deploy</text><polygon fill="#F1F1F1" points="53,514.0264,244,514.0264,256,526.0264,244,538.0264,53,538.0264,41,526.0264,53,514.0264" style="stroke:#181818;stroke-width:0.5;"/><text fill="#000000" font-family="sans-serif" font-size="11" lengthAdjust="spacing" textLength="46" x="152.5" y="548.6611">required</text><text fill="#000000" font-family="sans-serif" font-size="11" lengthAdjust="spacing" textLength="191" x="53" y="530.1836">Maven Central deployment required</text><polygon fill="#F1F1F1" points="148.5,616.6367,160.5,628.6367,148.5,640.6367,136.5,628.6367,148.5,616.6367" style="stroke:#181818;stroke-width:0.5;"/><rect fill="#F1F1F1" height="34.1328" rx="12.5" ry="12.5" style="stroke:#181818;stroke-width:0.5;" width="255" x="21" y="660.6367"/><text fill="#000000" font-family="sans-serif" font-size="12" lengthAdjust="spacing" textLength="235" x="31" y="682.2383">Calculate checksums for release artifacts</text><path d="M248.5,718.5918 L248.5,734.9023 L228.5,738.9023 L248.5,742.9023 L248.5,759.2129 A0,0 0 0 0 248.5,759.2129 L375.5,759.2129 A0,0 0 0 0 375.5,759.2129 L375.5,728.5918 L365.5,718.5918 L248.5,718.5918 A0,0 0 0 0 248.5,718.5918 " fill="#FEFFDD" style="stroke:#181818;stroke-width:0.5;"/><path d="M365.5,718.5918 L365.5,728.5918 L375.5,728.5918 L365.5,718.5918 " fill="#FEFFDD" style="stroke:#181818;stroke-width:0.5;"/><text fill="#000000" font-family="sans-serif" font-size="13" lengthAdjust="spacing" textLength="106" x="254.5" y="736.1602">Reads changelog</text><text fill="#000000" font-family="sans-serif" font-size="13" lengthAdjust="spacing" textLength="106" x="254.5" y="751.4707">content from file</text><rect fill="#F1F1F1" height="48.2656" rx="12.5" ry="12.5" style="stroke:#181818;stroke-width:0.5;" width="160" x="68.5" y="714.7695"/><text fill="#000000" font-family="sans-serif" font-size="12" lengthAdjust="spacing" textLength="140" x="78.5" y="736.3711">Create GitHub release &amp;</text><text fill="#000000" font-family="sans-serif" font-size="12" lengthAdjust="spacing" textLength="89" x="78.5" y="750.5039">attach artifacts.</text><ellipse cx="148.5" cy="806.0352" fill="none" rx="11" ry="11" style="stroke:#222222;stroke-width:1.0;"/><ellipse cx="148.5" cy="806.0352" fill="#222222" rx="6" ry="6" style="stroke:#222222;stroke-width:1.0;"/><line style="stroke:#181818;stroke-width:1.0;" x1="148.5" x2="148.5" y1="262.251" y2="282.251"/><polygon fill="#181818" points="144.5,272.251,148.5,282.251,152.5,272.251,148.5,276.251" style="stroke:#181818;stroke-width:1.0;"/><line style="stroke:#181818;stroke-width:1.0;" x1="148.5" x2="148.5" y1="316.3838" y2="336.3838"/><polygon fill="#181818" points="144.5,326.3838,148.5,336.3838,152.5,326.3838,148.5,330.3838" style="stroke:#181818;stroke-width:1.0;"/><line style="stroke:#181818;stroke-width:1.0;" x1="148.5" x2="148.5" y1="203.6406" y2="228.1182"/><polygon fill="#181818" points="144.5,218.1182,148.5,228.1182,152.5,218.1182,148.5,222.1182" style="stroke:#181818;stroke-width:1.0;"/><line style="stroke:#181818;stroke-width:1.0;" x1="233" x2="331" y1="190.6855" y2="190.6855"/><polygon fill="#181818" points="321,186.6855,331,190.6855,321,194.6855,325,190.6855" style="stroke:#181818;stroke-width:1.0;"/><line style="stroke:#181818;stroke-width:1.0;" x1="148.5" x2="148.5" y1="370.5166" y2="405.7607"/><polygon fill="#181818" points="144.5,395.7607,148.5,405.7607,152.5,395.7607,148.5,399.7607" style="stroke:#181818;stroke-width:1.0;"/><line style="stroke:#181818;stroke-width:1.0;" x1="148.5" x2="148.5" y1="131.2422" y2="177.7305"/><polygon fill="#181818" points="144.5,167.7305,148.5,177.7305,152.5,167.7305,148.5,171.7305" style="stroke:#181818;stroke-width:1.0;"/><line style="stroke:#181818;stroke-width:1.0;" x1="148.5" x2="148.5" y1="439.8936" y2="459.8936"/><polygon fill="#181818" points="144.5,449.8936,148.5,459.8936,152.5,449.8936,148.5,453.8936" style="stroke:#181818;stroke-width:1.0;"/><line style="stroke:#181818;stroke-width:1.0;" x1="148.5" x2="148.5" y1="538.0264" y2="562.5039"/><polygon fill="#181818" points="144.5,552.5039,148.5,562.5039,152.5,552.5039,148.5,556.5039" style="stroke:#181818;stroke-width:1.0;"/><line style="stroke:#181818;stroke-width:1.0;" x1="256" x2="268" y1="526.0264" y2="526.0264"/><polygon fill="#181818" points="264,569.5703,268,579.5703,272,569.5703,268,573.5703" style="stroke:#181818;stroke-width:1.0;"/><line style="stroke:#181818;stroke-width:1.0;" x1="268" x2="268" y1="526.0264" y2="628.6367"/><line style="stroke:#181818;stroke-width:1.0;" x1="268" x2="160.5" y1="628.6367" y2="628.6367"/><polygon fill="#181818" points="170.5,624.6367,160.5,628.6367,170.5,632.6367,166.5,628.6367" style="stroke:#181818;stroke-width:1.0;"/><line style="stroke:#181818;stroke-width:1.0;" x1="148.5" x2="148.5" y1="596.6367" y2="616.6367"/><polygon fill="#181818" points="144.5,606.6367,148.5,616.6367,152.5,606.6367,148.5,610.6367" style="stroke:#181818;stroke-width:1.0;"/><line style="stroke:#181818;stroke-width:1.0;" x1="148.5" x2="148.5" y1="494.0264" y2="514.0264"/><polygon fill="#181818" points="144.5,504.0264,148.5,514.0264,152.5,504.0264,148.5,508.0264" style="stroke:#181818;stroke-width:1.0;"/><line style="stroke:#181818;stroke-width:1.0;" x1="148.5" x2="148.5" y1="640.6367" y2="660.6367"/><polygon fill="#181818" points="144.5,650.6367,148.5,660.6367,152.5,650.6367,148.5,654.6367" style="stroke:#181818;stroke-width:1.0;"/><line style="stroke:#181818;stroke-width:1.0;" x1="148.5" x2="148.5" y1="694.7695" y2="714.7695"/><polygon fill="#181818" points="144.5,704.7695,148.5,714.7695,152.5,704.7695,148.5,708.7695" style="stroke:#181818;stroke-width:1.0;"/><line style="stroke:#181818;stroke-width:1.0;" x1="148.5" x2="148.5" y1="40.3105" y2="97.1094"/><polygon fill="#181818" points="144.5,87.1094,148.5,97.1094,152.5,87.1094,148.5,91.1094" style="stroke:#181818;stroke-width:1.0;"/><line style="stroke:#181818;stroke-width:1.0;" x1="148.5" x2="148.5" y1="763.0352" y2="795.0352"/><polygon fill="#181818" points="144.5,785.0352,148.5,795.0352,152.5,785.0352,148.5,789.0352" style="stroke:#181818;stroke-width:1.0;"/><!--SRC=[RPAnZjim38PtFmMd8Z7GF41kpD02HO53Mg1B5qQcR2Aov4fKWhnzATjohjVBP9A_-9CVamIZD3u8GUH-a0RWftxq5Ac34Nr6vnuGekQ3XocdWH98q19xk4JqPZWqv3ieBPe-XZn1sqPoX8aEZz6rBTn3l5eNxjhZUCuUNh-fv4QHxUFpgbGL9lYEDr8JbtlsBwfUsdqeroe0szrf87E5DGqT2ltsEvqvt25TUPhOzo03LSL-No8FEvDZ92_pY_tSxF_XslRbRGMxZeM3HxVvcUAUDjMlo5AIw7joeGSJl1GJvMNPKTNzGtlvdUbFveBSXWWc4eeElbNB0bzOlkPBTLvB6_WvS3hHJaFuQBaaOMhMDsoRvUqCk9xbajbrW9eMIZ9lTVonEh1bWsNvabNiowLEQX8LHqUJ2u-nMCPraSfvYvkDOzkEDx- -MH3NaOudT2Oxb4esZsacKddhVvKjcdMuK-7qdWnyqXAAe1cUyaFHlyD-9kpIyrXphXxCnZ3E9slUC7u2Aop_0W00]--></g></svg>