<?xml version="1.0" encoding="us-ascii" standalone="no"?><svg xmlns="http://www.w3.org/2000/svg" xmlns:xlink="http://www.w3.org/1999/xlink" contentStyleType="text/css" height="916px" preserveAspectRatio="none" style="width:759px;height:916px;background:#FFFFFF;" version="1.1" viewBox="0 0 759 916" width="759px" zoomAndPan="magnify"><defs/><g><path d="M322.25,10 L322.25,26.3105 L302.25,30.3105 L322.25,34.3105 L322.25,50.6211 A0,0 0 0 0 322.25,50.6211 L511.25,50.6211 A0,0 0 0 0 511.25,50.6211 L511.25,20 L501.25,10 L322.25,10 A0,0 0 0 0 322.25,10 " fill="#FEFFDD" style="stroke:#181818;stroke-width:0.5;"/><path d="M501.25,10 L501.25,20 L511.25,20 L501.25,10 " fill="#FEFFDD" style="stroke:#181818;stroke-width:0.5;"/><text fill="#000000" font-family="sans-serif" font-size="13" lengthAdjust="spacing" textLength="138" x="328.25" y="27.5684">Triggered manually or</text><text fill="#000000" font-family="sans-serif" font-size="13" lengthAdjust="spacing" textLength="168" x="328.25" y="42.8789">on pushes to main branch.</text><ellipse cx="292.25" cy="30.3105" fill="#222222" rx="10" ry="10" style="stroke:#222222;stroke-width:1.0;"/><rect fill="none" height="802.9346" style="stroke:#000000;stroke-width:1.5;" width="737" x="11" y="60.6211"/><path d="M169,60.6211 L169,70.1094 L159,80.1094 L11,80.1094 " fill="none" style="stroke:#000000;stroke-width:1.5;"/><text fill="#000000" font-family="sans-serif" font-size="14" font-weight="bold" lengthAdjust="spacing" textLength="81" x="14" y="75.1563">release.yml</text><text fill="#000000" font-family="sans-serif" font-size="14" lengthAdjust="spacing" textLength="63" x="99" y="75.1563">workflow</text><path d="M644,452.5049 L644,493.126 L728,493.126 L728,462.5049 L718,452.5049 L644,452.5049 " fill="#FEFFDD" style="stroke:#181818;stroke-width:0.5;"/><path d="M718,452.5049 L718,462.5049 L728,462.5049 L718,452.5049 " fill="#FEFFDD" style="stroke:#181818;stroke-width:0.5;"/><text fill="#000000" font-family="sans-serif" font-size="13" lengthAdjust="spacing" textLength="63" x="650" y="470.0732">Generated</text><text fill="#000000" font-family="sans-serif" font-size="13" lengthAdjust="spacing" textLength="34" x="650" y="485.3838">by PK</text><rect fill="#F1F1F1" height="34.1328" rx="12.5" ry="12.5" style="stroke:#181818;stroke-width:0.5;" width="249" x="167.75" y="97.1094"/><text fill="#000000" font-family="sans-serif" font-size="12" lengthAdjust="spacing" textLength="41" x="177.75" y="118.7109">Run PK</text><text fill="#000000" font-family="sans-serif" font-size="12" font-weight="bold" lengthAdjust="spacing" textLength="87" x="222.75" y="118.7109">verify-release</text><text fill="#000000" font-family="sans-serif" font-size="12" lengthAdjust="spacing" textLength="93" x="313.75" y="118.7109">as Maven plugin</text><rect fill="none" height="246.5293" style="stroke:#000000;stroke-width:1.5;" width="613" x="21" y="141.2422"/><path d="M153,141.2422 L153,150.7305 L143,160.7305 L21,160.7305 " fill="none" style="stroke:#000000;stroke-width:1.5;"/><text fill="#000000" font-family="sans-serif" font-size="14" lengthAdjust="spacing" textLength="17" x="24" y="155.7773">PK</text><text fill="#000000" font-family="sans-serif" font-size="14" font-weight="bold" lengthAdjust="spacing" textLength="101" x="45" y="155.7773">verify-release</text><path d="M511,267.7734 L511,308.3945 L614,308.3945 L614,277.7734 L604,267.7734 L511,267.7734 " fill="#FEFFDD" style="stroke:#181818;stroke-width:0.5;"/><path d="M604,267.7734 L604,277.7734 L614,277.7734 L604,267.7734 " fill="#FEFFDD" style="stroke:#181818;stroke-width:0.5;"/><text fill="#000000" font-family="sans-serif" font-size="13" lengthAdjust="spacing" textLength="82" x="517" y="285.3418">Implemented</text><text fill="#000000" font-family="sans-serif" font-size="13" lengthAdjust="spacing" textLength="31" x="517" y="300.6523">in PK</text><polygon fill="#F1F1F1" points="219.75,177.7305,364.75,177.7305,376.75,190.6855,364.75,203.6406,219.75,203.6406,207.75,190.6855,219.75,177.7305" style="stroke:#181818;stroke-width:0.5;"/><text fill="#000000" font-family="sans-serif" font-size="11" lengthAdjust="spacing" textLength="134" x="219.75" y="188.3652">Release date up-to-date?</text><text fill="#000000" font-family="sans-serif" font-size="11" lengthAdjust="spacing" textLength="145" x="219.75" y="201.3203">(allow skipping the release)</text><text fill="#000000" font-family="sans-serif" font-size="11" lengthAdjust="spacing" textLength="60" x="147.75" y="188.3652">up-to-date</text><text fill="#000000" font-family="sans-serif" font-size="11" lengthAdjust="spacing" textLength="89" x="376.75" y="188.3652">invalid/outdated</text><rect fill="#F1F1F1" height="34.1328" rx="12.5" ry="12.5" style="stroke:#181818;stroke-width:0.5;" width="100" x="79.5" y="213.6406"/><text fill="#000000" font-family="sans-serif" font-size="12" lengthAdjust="spacing" textLength="41" x="89.5" y="235.2422">Run PK</text><text fill="#000000" font-family="sans-serif" font-size="12" font-weight="bold" lengthAdjust="spacing" textLength="35" x="134.5" y="235.2422">verify</text><rect fill="#F1F1F1" height="34.1328" rx="12.5" ry="12.5" style="stroke:#181818;stroke-width:0.5;" width="192" x="33.5" y="282.7285"/><text fill="#000000" font-family="sans-serif" font-size="12" lengthAdjust="spacing" textLength="172" x="43.5" y="304.3301">Run additional release checks</text><path d="M246,335.1504 L246,351.4609 L226,355.4609 L246,359.4609 L246,375.7715 A0,0 0 0 0 246,375.7715 L399,375.7715 A0,0 0 0 0 399,375.7715 L399,345.1504 L389,335.1504 L246,335.1504 A0,0 0 0 0 246,335.1504 " fill="#FEFFDD" style="stroke:#181818;stroke-width:0.5;"/><path d="M389,335.1504 L389,345.1504 L399,345.1504 L389,335.1504 " fill="#FEFFDD" style="stroke:#181818;stroke-width:0.5;"/><text fill="#000000" font-family="sans-serif" font-size="13" lengthAdjust="spacing" textLength="132" x="252" y="352.7188">Required for creating</text><text fill="#000000" font-family="sans-serif" font-size="13" lengthAdjust="spacing" textLength="116" x="252" y="368.0293">the GitHub release</text><rect fill="#F1F1F1" height="34.1328" rx="12.5" ry="12.5" style="stroke:#181818;stroke-width:0.5;" width="193" x="33" y="338.3945"/><text fill="#000000" font-family="sans-serif" font-size="12" lengthAdjust="spacing" textLength="173" x="43" y="359.9961">Write changelog content to file</text><rect fill="#F1F1F1" height="34.1328" rx="12.5" ry="12.5" style="stroke:#181818;stroke-width:0.5;" width="72" x="419" y="213.6406"/><text fill="#000000" font-family="sans-serif" font-size="12" lengthAdjust="spacing" textLength="52" x="429" y="235.2422">Fail build</text><ellipse cx="455" cy="293.7285" fill="none" rx="11" ry="11" style="stroke:#222222;stroke-width:1.0;"/><ellipse cx="455" cy="293.7285" fill="#222222" rx="6" ry="6" style="stroke:#222222;stroke-width:1.0;"/><rect fill="#F1F1F1" height="34.1328" rx="12.5" ry="12.5" style="stroke:#181818;stroke-width:0.5;" width="112" x="236.25" y="407.7715"/><text fill="#000000" font-family="sans-serif" font-size="12" lengthAdjust="spacing" textLength="22" x="246.25" y="429.373">Run</text><text fill="#000000" font-family="sans-serif" font-size="12" font-weight="bold" lengthAdjust="spacing" textLength="66" x="272.25" y="429.373">mvn verify</text><rect fill="#F1F1F1" height="34.1328" rx="12.5" ry="12.5" style="stroke:#181818;stroke-width:0.5;" width="119" x="232.75" y="525.3818"/><text fill="#000000" font-family="sans-serif" font-size="12" lengthAdjust="spacing" textLength="22" x="242.75" y="546.9834">Run</text><text fill="#000000" font-family="sans-serif" font-size="12" font-weight="bold" lengthAdjust="spacing" textLength="73" x="268.75" y="546.9834">mvn deploy</text><polygon fill="#F1F1F1" points="196.75,476.9043,387.75,476.9043,399.75,488.9043,387.75,500.9043,196.75,500.9043,184.75,488.9043,196.75,476.9043" style="stroke:#181818;stroke-width:0.5;"/><text fill="#000000" font-family="sans-serif" font-size="11" lengthAdjust="spacing" textLength="46" x="296.25" y="511.5391">required</text><text fill="#000000" font-family="sans-serif" font-size="11" lengthAdjust="spacing" textLength="191" x="196.75" y="493.0615">Maven Central deployment required</text><polygon fill="#F1F1F1" points="292.25,579.5146,304.25,591.5146,292.25,603.5146,280.25,591.5146,292.25,579.5146" style="stroke:#181818;stroke-width:0.5;"/><rect fill="#F1F1F1" height="34.1328" rx="12.5" ry="12.5" style="stroke:#181818;stroke-width:0.5;" width="255" x="164.75" y="623.5146"/><text fill="#000000" font-family="sans-serif" font-size="12" lengthAdjust="spacing" textLength="235" x="174.75" y="645.1162">Calculate checksums for release artifacts</text><path d="M386.25,674.4033 L386.25,690.7139 L366.25,694.7139 L386.25,698.7139 L386.25,715.0244 A0,0 0 0 0 386.25,715.0244 L513.25,715.0244 A0,0 0 0 0 513.25,715.0244 L513.25,684.4033 L503.25,674.4033 L386.25,674.4033 A0,0 0 0 0 386.25,674.4033 " fill="#FEFFDD" style="stroke:#181818;stroke-width:0.5;"/><path d="M503.25,674.4033 L503.25,684.4033 L513.25,684.4033 L503.25,674.4033 " fill="#FEFFDD" style="stroke:#181818;stroke-width:0.5;"/><text fill="#000000" font-family="sans-serif" font-size="13" lengthAdjust="spacing" textLength="106" x="392.25" y="691.9717">Reads changelog</text><text fill="#000000" font-family="sans-serif" font-size="13" lengthAdjust="spacing" textLength="106" x="392.25" y="707.2822">content from file</text><rect fill="#F1F1F1" height="34.1328" rx="12.5" ry="12.5" style="stroke:#181818;stroke-width:0.5;" width="148" x="218.25" y="677.6475"/><text fill="#000000" font-family="sans-serif" font-size="12" lengthAdjust="spacing" textLength="128" x="228.25" y="699.249">Create GitHub release</text><path d="M406.25,746.502 L406.25,755.1572 L386.25,759.1572 L406.25,763.1572 L406.25,771.8125 A0,0 0 0 0 406.25,771.8125 L513.25,771.8125 A0,0 0 0 0 513.25,771.8125 L513.25,756.502 L503.25,746.502 L406.25,746.502 A0,0 0 0 0 406.25,746.502 " fill="#FEFFDD" style="stroke:#181818;stroke-width:0.5;"/><path d="M503.25,746.502 L503.25,756.502 L513.25,756.502 L503.25,746.502 " fill="#FEFFDD" style="stroke:#181818;stroke-width:0.5;"/><text fill="#000000" font-family="sans-serif" font-size="13" lengthAdjust="spacing" textLength="86" x="412.25" y="764.0703">Customizable</text><rect fill="#F1F1F1" height="48.2656" rx="12.5" ry="12.5" style="stroke:#181818;stroke-width:0.5;" width="188" x="198.25" y="735.0244"/><text fill="#000000" font-family="sans-serif" font-size="12" lengthAdjust="spacing" textLength="158" x="208.25" y="756.626">Attach release artifacts and</text><text fill="#000000" font-family="sans-serif" font-size="12" lengthAdjust="spacing" textLength="168" x="208.25" y="770.7588">checksums to GitHub release</text><rect fill="#F1F1F1" height="48.2656" rx="12.5" ry="12.5" style="stroke:#181818;stroke-width:0.5;" width="147" x="218.75" y="803.29"/><text fill="#000000" font-family="sans-serif" font-size="12" lengthAdjust="spacing" textLength="127" x="228.75" y="824.8916">Send Slack notification</text><text fill="#000000" font-family="sans-serif" font-size="12" lengthAdjust="spacing" textLength="116" x="228.75" y="839.0244">for success &amp; failure</text><ellipse cx="292.25" cy="894.5557" fill="none" rx="11" ry="11" style="stroke:#222222;stroke-width:1.0;"/><ellipse cx="292.25" cy="894.5557" fill="#222222" rx="6" ry="6" style="stroke:#222222;stroke-width:1.0;"/><line style="stroke:#181818;stroke-width:1.0;" x1="129.5" x2="129.5" y1="247.7734" y2="282.7285"/><polygon fill="#181818" points="125.5,272.7285,129.5,282.7285,133.5,272.7285,129.5,276.7285" style="stroke:#181818;stroke-width:1.0;"/><line style="stroke:#181818;stroke-width:1.0;" x1="129.5" x2="129.5" y1="316.8613" y2="338.3945"/><polygon fill="#181818" points="125.5,328.3945,129.5,338.3945,133.5,328.3945,129.5,332.3945" style="stroke:#181818;stroke-width:1.0;"/><line style="stroke:#181818;stroke-width:1.0;" x1="455" x2="455" y1="247.7734" y2="282.7285"/><polygon fill="#181818" points="451,272.7285,455,282.7285,459,272.7285,455,276.7285" style="stroke:#181818;stroke-width:1.0;"/><line style="stroke:#181818;stroke-width:1.0;" x1="207.75" x2="129.5" y1="190.6855" y2="190.6855"/><line style="stroke:#181818;stroke-width:1.0;" x1="129.5" x2="129.5" y1="190.6855" y2="213.6406"/><polygon fill="#181818" points="125.5,203.6406,129.5,213.6406,133.5,203.6406,129.5,207.6406" style="stroke:#181818;stroke-width:1.0;"/><line style="stroke:#181818;stroke-width:1.0;" x1="376.75" x2="455" y1="190.6855" y2="190.6855"/><line style="stroke:#181818;stroke-width:1.0;" x1="455" x2="455" y1="190.6855" y2="213.6406"/><polygon fill="#181818" points="451,203.6406,455,213.6406,459,203.6406,455,207.6406" style="stroke:#181818;stroke-width:1.0;"/><line style="stroke:#181818;stroke-width:1.0;" x1="129.5" x2="129.5" y1="372.5273" y2="380.7715"/><line style="stroke:#181818;stroke-width:1.0;" x1="129.5" x2="292.25" y1="380.7715" y2="380.7715"/><line style="stroke:#181818;stroke-width:1.0;" x1="292.25" x2="292.25" y1="380.7715" y2="407.7715"/><polygon fill="#181818" points="288.25,397.7715,292.25,407.7715,296.25,397.7715,292.25,401.7715" style="stroke:#181818;stroke-width:1.0;"/><line style="stroke:#181818;stroke-width:1.0;" x1="292.25" x2="292.25" y1="131.2422" y2="177.7305"/><polygon fill="#181818" points="288.25,167.7305,292.25,177.7305,296.25,167.7305,292.25,171.7305" style="stroke:#181818;stroke-width:1.0;"/><line style="stroke:#181818;stroke-width:1.0;" x1="292.25" x2="292.25" y1="500.9043" y2="525.3818"/><polygon fill="#181818" points="288.25,515.3818,292.25,525.3818,296.25,515.3818,292.25,519.3818" style="stroke:#181818;stroke-width:1.0;"/><line style="stroke:#181818;stroke-width:1.0;" x1="399.75" x2="411.75" y1="488.9043" y2="488.9043"/><polygon fill="#181818" points="407.75,532.4482,411.75,542.4482,415.75,532.4482,411.75,536.4482" style="stroke:#181818;stroke-width:1.0;"/><line style="stroke:#181818;stroke-width:1.0;" x1="411.75" x2="411.75" y1="488.9043" y2="591.5146"/><line style="stroke:#181818;stroke-width:1.0;" x1="411.75" x2="304.25" y1="591.5146" y2="591.5146"/><polygon fill="#181818" points="314.25,587.5146,304.25,591.5146,314.25,595.5146,310.25,591.5146" style="stroke:#181818;stroke-width:1.0;"/><line style="stroke:#181818;stroke-width:1.0;" x1="292.25" x2="292.25" y1="559.5146" y2="579.5146"/><polygon fill="#181818" points="288.25,569.5146,292.25,579.5146,296.25,569.5146,292.25,573.5146" style="stroke:#181818;stroke-width:1.0;"/><line style="stroke:#181818;stroke-width:1.0;" x1="292.25" x2="292.25" y1="441.9043" y2="476.9043"/><polygon fill="#181818" points="288.25,466.9043,292.25,476.9043,296.25,466.9043,292.25,470.9043" style="stroke:#181818;stroke-width:1.0;"/><line style="stroke:#181818;stroke-width:1.0;" x1="292.25" x2="292.25" y1="603.5146" y2="623.5146"/><polygon fill="#181818" points="288.25,613.5146,292.25,623.5146,296.25,613.5146,292.25,617.5146" style="stroke:#181818;stroke-width:1.0;"/><line style="stroke:#181818;stroke-width:1.0;" x1="292.25" x2="292.25" y1="657.6475" y2="677.6475"/><polygon fill="#181818" points="288.25,667.6475,292.25,677.6475,296.25,667.6475,292.25,671.6475" style="stroke:#181818;stroke-width:1.0;"/><line style="stroke:#181818;stroke-width:1.0;" x1="292.25" x2="292.25" y1="711.7803" y2="735.0244"/><polygon fill="#181818" points="288.25,725.0244,292.25,735.0244,296.25,725.0244,292.25,729.0244" style="stroke:#181818;stroke-width:1.0;"/><line style="stroke:#181818;stroke-width:1.0;" x1="292.25" x2="292.25" y1="783.29" y2="803.29"/><polygon fill="#181818" points="288.25,793.29,292.25,803.29,296.25,793.29,292.25,797.29" style="stroke:#181818;stroke-width:1.0;"/><line style="stroke:#181818;stroke-width:1.0;" x1="292.25" x2="292.25" y1="40.3105" y2="97.1094"/><polygon fill="#181818" points="288.25,87.1094,292.25,97.1094,296.25,87.1094,292.25,91.1094" style="stroke:#181818;stroke-width:1.0;"/><line style="stroke:#181818;stroke-width:1.0;" x1="292.25" x2="292.25" y1="851.5557" y2="883.5557"/><polygon fill="#181818" points="288.25,873.5557,292.25,883.5557,296.25,873.5557,292.25,877.5557" style="stroke:#181818;stroke-width:1.0;"/><!--SRC=[XLDDYzim4BtxLyof98RitfD3AO5kor8esK8llKoaiJr4bbnz9AI_lYCxSZP9eJTfPlpUc_Va4D77ohf8uBdjOWNmGmujUTBGeqrep1cSbxgpCAJGKO3efCKMzXwjwfugiXeoHDLwbmQeQq-6CD3JkJTr3IVd3urn9y6u8G9u8KiU8-dnjZ_3zrSvpN00wrsoKXJ88tbkpgiBig1YW6zu915bKijs8zCJ_J_7Hu8xTe2l_M2e9riK0B2TDDoea7Aps4rGe4Klf64LtIeVF_wo2_78dI0SU1ZOjX0xOPccbyjyix2uVh2yCDslLjURzntKcYCxYwPWWUf87S8yzTDpp4MqBHdNWdAoXuqvdOODbRc7fG5sz3jn3hXn7fGdZ29xxcRvBno_f7rXlhHk724ZYXPiZsXOFxiKysvwNkupie5zOgEBZX3TK8pbvXBpc5Z9kQxxeuNtReZjKyPRMSoB5Pe6uyuvCT4sBL4Sdk_LxE44E7qp0HRkzHQDIWPZSJNrONIZU2r_1JUeucZtUfizkdTby_YUTuGwN2CPQoMMnhj-3ERkXN-A4LNtI0neywEyofDS_ojWcyJcdl_W_e7dBL_U3Af3Bd732lFxabRUEoIbA0Ju08qabxo0N_F9qVq5]--></g></svg>