<?xml version="1.0" encoding="us-ascii" standalone="no"?><svg xmlns="http://www.w3.org/2000/svg" xmlns:xlink="http://www.w3.org/1999/xlink" contentStyleType="text/css" height="963px" preserveAspectRatio="none" style="width:749px;height:963px;background:#FFFFFF;" version="1.1" viewBox="0 0 749 963" width="749px" zoomAndPan="magnify"><defs/><g><ellipse cx="204.5" cy="20" fill="#222222" rx="10" ry="10" style="stroke:#222222;stroke-width:1.0;"/><path d="M338,46.167 L338,70.1328 L318,74.1328 L338,78.1328 L338,102.0986 A0,0 0 0 0 338,102.0986 L555,102.0986 A0,0 0 0 0 555,102.0986 L555,56.167 L545,46.167 L338,46.167 A0,0 0 0 0 338,46.167 " fill="#FEFFDD" style="stroke:#181818;stroke-width:0.5;"/><path d="M545,46.167 L545,56.167 L555,56.167 L545,46.167 " fill="#FEFFDD" style="stroke:#181818;stroke-width:0.5;"/><text fill="#000000" font-family="sans-serif" font-size="13" lengthAdjust="spacing" textLength="196" x="344" y="63.7354">Pass information about created</text><text fill="#000000" font-family="sans-serif" font-size="13" lengthAdjust="spacing" textLength="163" x="344" y="79.0459">issues &amp; vulnerabilities to</text><text fill="#000000" font-family="sans-serif" font-size="13" font-weight="bold" lengthAdjust="spacing" textLength="178" x="344" y="94.3564">dependencies_update.yml</text><rect fill="#F1F1F1" height="48.2656" rx="12.5" ry="12.5" style="stroke:#181818;stroke-width:0.5;" width="227" x="91" y="50"/><text fill="#000000" font-family="sans-serif" font-size="12" font-weight="bold" lengthAdjust="spacing" textLength="152" x="101" y="71.6016">dependencies_check.yml</text><text fill="#000000" font-family="sans-serif" font-size="12" lengthAdjust="spacing" textLength="51" x="257" y="71.6016">workflow</text><text fill="#000000" font-family="sans-serif" font-size="12" lengthAdjust="spacing" textLength="92" x="101" y="85.7344">(triggered daily)</text><rect fill="none" height="742.4033" style="stroke:#000000;stroke-width:1.5;" width="727" x="11" y="168.2334"/><path d="M271,168.2334 L271,177.7217 L261,187.7217 L11,187.7217 " fill="none" style="stroke:#000000;stroke-width:1.5;"/><text fill="#000000" font-family="sans-serif" font-size="14" font-weight="bold" lengthAdjust="spacing" textLength="183" x="14" y="182.7686">dependencies_update.yml</text><text fill="#000000" font-family="sans-serif" font-size="14" lengthAdjust="spacing" textLength="63" x="201" y="182.7686">workflow</text><path d="M590,526.541 L590,567.1621 L718,567.1621 L718,536.541 L708,526.541 L590,526.541 " fill="#FEFFDD" style="stroke:#181818;stroke-width:0.5;"/><path d="M708,526.541 L708,536.541 L718,536.541 L708,526.541 " fill="#FEFFDD" style="stroke:#181818;stroke-width:0.5;"/><text fill="#000000" font-family="sans-serif" font-size="13" lengthAdjust="spacing" textLength="107" x="596" y="544.1094">GitHub Workflow</text><text fill="#000000" font-family="sans-serif" font-size="13" lengthAdjust="spacing" textLength="100" x="596" y="559.4199">generated by PK</text><rect fill="#F1F1F1" height="34.1328" rx="12.5" ry="12.5" style="stroke:#181818;stroke-width:0.5;" width="298" x="55.5" y="204.7217"/><text fill="#000000" font-family="sans-serif" font-size="12" lengthAdjust="spacing" textLength="41" x="65.5" y="226.3232">Run PK</text><text fill="#000000" font-family="sans-serif" font-size="12" font-weight="bold" lengthAdjust="spacing" textLength="136" x="110.5" y="226.3232">update-dependencies</text><text fill="#000000" font-family="sans-serif" font-size="12" lengthAdjust="spacing" textLength="93" x="250.5" y="226.3232">as Maven plugin</text><rect fill="none" height="513.251" style="stroke:#000000;stroke-width:1.5;" width="559" x="21" y="248.8545"/><path d="M207,248.8545 L207,258.3428 L197,268.3428 L21,268.3428 " fill="none" style="stroke:#000000;stroke-width:1.5;"/><text fill="#000000" font-family="sans-serif" font-size="14" lengthAdjust="spacing" textLength="17" x="24" y="263.3896">PK</text><text fill="#000000" font-family="sans-serif" font-size="14" font-weight="bold" lengthAdjust="spacing" textLength="155" x="45" y="263.3896">update-dependencies</text><path d="M472,486.0859 L472,526.707 L560,526.707 L560,496.0859 L550,486.0859 L472,486.0859 " fill="#FEFFDD" style="stroke:#181818;stroke-width:0.5;"/><path d="M550,486.0859 L550,496.0859 L560,496.0859 L550,486.0859 " fill="#FEFFDD" style="stroke:#181818;stroke-width:0.5;"/><text fill="#000000" font-family="sans-serif" font-size="13" lengthAdjust="spacing" textLength="67" x="478" y="503.6543">Implement</text><text fill="#000000" font-family="sans-serif" font-size="13" lengthAdjust="spacing" textLength="31" x="478" y="518.9648">in PK</text><rect fill="#F1F1F1" height="34.1328" rx="12.5" ry="12.5" style="stroke:#181818;stroke-width:0.5;" width="167" x="121" y="333.8203"/><text fill="#000000" font-family="sans-serif" font-size="12" lengthAdjust="spacing" textLength="147" x="131" y="355.4219">Increment project version</text><polygon fill="#F1F1F1" points="119.5,285.3428,289.5,285.3428,301.5,297.3428,289.5,309.3428,119.5,309.3428,107.5,297.3428,119.5,285.3428" style="stroke:#181818;stroke-width:0.5;"/><text fill="#000000" font-family="sans-serif" font-size="11" lengthAdjust="spacing" textLength="18" x="208.5" y="319.9775">yes</text><text fill="#000000" font-family="sans-serif" font-size="11" lengthAdjust="spacing" textLength="170" x="119.5" y="301.5">Latest version already released?</text><text fill="#000000" font-family="sans-serif" font-size="11" lengthAdjust="spacing" textLength="14" x="301.5" y="295.0225">no</text><polygon fill="#F1F1F1" points="204.5,387.9531,216.5,399.9531,204.5,411.9531,192.5,399.9531,204.5,387.9531" style="stroke:#181818;stroke-width:0.5;"/><rect fill="#F1F1F1" height="34.1328" rx="12.5" ry="12.5" style="stroke:#181818;stroke-width:0.5;" width="147" x="131" y="431.9531"/><text fill="#000000" font-family="sans-serif" font-size="12" lengthAdjust="spacing" textLength="127" x="141" y="453.5547">Update dependencies</text><path d="M264,478.4307 L264,502.3965 L244,506.3965 L264,510.3965 L264,534.3623 A0,0 0 0 0 264,534.3623 L462,534.3623 A0,0 0 0 0 462,534.3623 L462,488.4307 L452,478.4307 L264,478.4307 A0,0 0 0 0 264,478.4307 " fill="#FEFFDD" style="stroke:#181818;stroke-width:0.5;"/><path d="M452,478.4307 L452,488.4307 L462,488.4307 L452,478.4307 " fill="#FEFFDD" style="stroke:#181818;stroke-width:0.5;"/><text fill="#000000" font-family="sans-serif" font-size="13" lengthAdjust="spacing" textLength="177" x="270" y="495.999">Add dependency changes to</text><text fill="#000000" font-family="sans-serif" font-size="13" lengthAdjust="spacing" textLength="158" x="270" y="511.3096">changelog, Update list of</text><text fill="#000000" font-family="sans-serif" font-size="13" lengthAdjust="spacing" textLength="106" x="270" y="526.6201">dependencies, ...</text><rect fill="#F1F1F1" height="34.1328" rx="12.5" ry="12.5" style="stroke:#181818;stroke-width:0.5;" width="79" x="165" y="489.3301"/><text fill="#000000" font-family="sans-serif" font-size="12" lengthAdjust="spacing" textLength="59" x="175" y="510.9316">Run PK fix</text><rect fill="#F1F1F1" height="34.1328" rx="12.5" ry="12.5" style="stroke:#181818;stroke-width:0.5;" width="261" x="74" y="569.3623"/><text fill="#000000" font-family="sans-serif" font-size="12" lengthAdjust="spacing" textLength="241" x="84" y="590.9639">Update changlog: add fixed vulnerabilites</text><rect fill="#F1F1F1" height="34.1328" rx="12.5" ry="12.5" style="stroke:#181818;stroke-width:0.5;" width="305" x="52" y="671.9727"/><text fill="#000000" font-family="sans-serif" font-size="12" lengthAdjust="spacing" textLength="285" x="62" y="693.5742">Run artifact-reference-checker-maven-plugin:fix</text><polygon fill="#F1F1F1" points="43,623.4951,366,623.4951,378,635.4951,366,647.4951,43,647.4951,31,635.4951,43,623.4951" style="stroke:#181818;stroke-width:0.5;"/><text fill="#000000" font-family="sans-serif" font-size="11" lengthAdjust="spacing" textLength="18" x="208.5" y="658.1299">yes</text><text fill="#000000" font-family="sans-serif" font-size="11" lengthAdjust="spacing" textLength="323" x="43" y="639.6523">pom.xml contains artifact-reference-checker-maven-plugin</text><text fill="#000000" font-family="sans-serif" font-size="11" lengthAdjust="spacing" textLength="14" x="378" y="633.1748">no</text><polygon fill="#F1F1F1" points="204.5,726.1055,216.5,738.1055,204.5,750.1055,192.5,738.1055,204.5,726.1055" style="stroke:#181818;stroke-width:0.5;"/><path d="M324.5,785.9277 L324.5,802.2383 L304.5,806.2383 L324.5,810.2383 L324.5,826.5488 A0,0 0 0 0 324.5,826.5488 L502.5,826.5488 A0,0 0 0 0 502.5,826.5488 L502.5,795.9277 L492.5,785.9277 L324.5,785.9277 A0,0 0 0 0 324.5,785.9277 " fill="#FEFFDD" style="stroke:#181818;stroke-width:0.5;"/><path d="M492.5,785.9277 L492.5,795.9277 L502.5,795.9277 L492.5,785.9277 " fill="#FEFFDD" style="stroke:#181818;stroke-width:0.5;"/><text fill="#000000" font-family="sans-serif" font-size="13" lengthAdjust="spacing" textLength="157" x="330.5" y="803.4961">Needs information about</text><text fill="#000000" font-family="sans-serif" font-size="13" lengthAdjust="spacing" textLength="146" x="330.5" y="818.8066">issues &amp; vulnerabilities</text><rect fill="#F1F1F1" height="48.2656" rx="12.5" ry="12.5" style="stroke:#181818;stroke-width:0.5;" width="200" x="104.5" y="782.1055"/><text fill="#000000" font-family="sans-serif" font-size="12" lengthAdjust="spacing" textLength="180" x="114.5" y="803.707">Create branch, commit, push &amp;</text><text fill="#000000" font-family="sans-serif" font-size="12" lengthAdjust="spacing" textLength="109" x="114.5" y="817.8398">create pull request</text><rect fill="#F1F1F1" height="48.2656" rx="12.5" ry="12.5" style="stroke:#181818;stroke-width:0.5;" width="150" x="129.5" y="850.3711"/><text fill="#000000" font-family="sans-serif" font-size="12" lengthAdjust="spacing" textLength="127" x="139.5" y="871.9727">Send Slack notification</text><text fill="#000000" font-family="sans-serif" font-size="12" lengthAdjust="spacing" textLength="130" x="139.5" y="886.1055">for success and failure</text><polygon fill="#F1F1F1" points="117.5,122.0986,291.5,122.0986,303.5,134.0986,291.5,146.0986,117.5,146.0986,105.5,134.0986,117.5,122.0986" style="stroke:#181818;stroke-width:0.5;"/><text fill="#000000" font-family="sans-serif" font-size="11" lengthAdjust="spacing" textLength="18" x="208.5" y="156.7334">yes</text><text fill="#000000" font-family="sans-serif" font-size="11" lengthAdjust="spacing" textLength="174" x="117.5" y="138.2559">Vulnerable dependencies found?</text><text fill="#000000" font-family="sans-serif" font-size="11" lengthAdjust="spacing" textLength="14" x="303.5" y="131.7783">no</text><ellipse cx="339.5" cy="134.0986" fill="none" rx="11" ry="11" style="stroke:#222222;stroke-width:1.0;"/><ellipse cx="339.5" cy="134.0986" fill="#222222" rx="6" ry="6" style="stroke:#222222;stroke-width:1.0;"/><ellipse cx="204.5" cy="941.6367" fill="none" rx="11" ry="11" style="stroke:#222222;stroke-width:1.0;"/><ellipse cx="204.5" cy="941.6367" fill="#222222" rx="6" ry="6" style="stroke:#222222;stroke-width:1.0;"/><line style="stroke:#181818;stroke-width:1.0;" x1="204.5" x2="204.5" y1="30" y2="50"/><polygon fill="#181818" points="200.5,40,204.5,50,208.5,40,204.5,44" style="stroke:#181818;stroke-width:1.0;"/><line style="stroke:#181818;stroke-width:1.0;" x1="204.5" x2="204.5" y1="309.3428" y2="333.8203"/><polygon fill="#181818" points="200.5,323.8203,204.5,333.8203,208.5,323.8203,204.5,327.8203" style="stroke:#181818;stroke-width:1.0;"/><line style="stroke:#181818;stroke-width:1.0;" x1="301.5" x2="313.5" y1="297.3428" y2="297.3428"/><polygon fill="#181818" points="309.5,340.8867,313.5,350.8867,317.5,340.8867,313.5,344.8867" style="stroke:#181818;stroke-width:1.0;"/><line style="stroke:#181818;stroke-width:1.0;" x1="313.5" x2="313.5" y1="297.3428" y2="399.9531"/><line style="stroke:#181818;stroke-width:1.0;" x1="313.5" x2="216.5" y1="399.9531" y2="399.9531"/><polygon fill="#181818" points="226.5,395.9531,216.5,399.9531,226.5,403.9531,222.5,399.9531" style="stroke:#181818;stroke-width:1.0;"/><line style="stroke:#181818;stroke-width:1.0;" x1="204.5" x2="204.5" y1="367.9531" y2="387.9531"/><polygon fill="#181818" points="200.5,377.9531,204.5,387.9531,208.5,377.9531,204.5,381.9531" style="stroke:#181818;stroke-width:1.0;"/><line style="stroke:#181818;stroke-width:1.0;" x1="204.5" x2="204.5" y1="411.9531" y2="431.9531"/><polygon fill="#181818" points="200.5,421.9531,204.5,431.9531,208.5,421.9531,204.5,425.9531" style="stroke:#181818;stroke-width:1.0;"/><line style="stroke:#181818;stroke-width:1.0;" x1="204.5" x2="204.5" y1="466.0859" y2="489.3301"/><polygon fill="#181818" points="200.5,479.3301,204.5,489.3301,208.5,479.3301,204.5,483.3301" style="stroke:#181818;stroke-width:1.0;"/><line style="stroke:#181818;stroke-width:1.0;" x1="204.5" x2="204.5" y1="523.4629" y2="569.3623"/><polygon fill="#181818" points="200.5,559.3623,204.5,569.3623,208.5,559.3623,204.5,563.3623" style="stroke:#181818;stroke-width:1.0;"/><line style="stroke:#181818;stroke-width:1.0;" x1="204.5" x2="204.5" y1="647.4951" y2="671.9727"/><polygon fill="#181818" points="200.5,661.9727,204.5,671.9727,208.5,661.9727,204.5,665.9727" style="stroke:#181818;stroke-width:1.0;"/><line style="stroke:#181818;stroke-width:1.0;" x1="378" x2="390" y1="635.4951" y2="635.4951"/><polygon fill="#181818" points="386,679.0391,390,689.0391,394,679.0391,390,683.0391" style="stroke:#181818;stroke-width:1.0;"/><line style="stroke:#181818;stroke-width:1.0;" x1="390" x2="390" y1="635.4951" y2="738.1055"/><line style="stroke:#181818;stroke-width:1.0;" x1="390" x2="216.5" y1="738.1055" y2="738.1055"/><polygon fill="#181818" points="226.5,734.1055,216.5,738.1055,226.5,742.1055,222.5,738.1055" style="stroke:#181818;stroke-width:1.0;"/><line style="stroke:#181818;stroke-width:1.0;" x1="204.5" x2="204.5" y1="706.1055" y2="726.1055"/><polygon fill="#181818" points="200.5,716.1055,204.5,726.1055,208.5,716.1055,204.5,720.1055" style="stroke:#181818;stroke-width:1.0;"/><line style="stroke:#181818;stroke-width:1.0;" x1="204.5" x2="204.5" y1="603.4951" y2="623.4951"/><polygon fill="#181818" points="200.5,613.4951,204.5,623.4951,208.5,613.4951,204.5,617.4951" style="stroke:#181818;stroke-width:1.0;"/><line style="stroke:#181818;stroke-width:1.0;" x1="204.5" x2="204.5" y1="238.8545" y2="285.3428"/><polygon fill="#181818" points="200.5,275.3428,204.5,285.3428,208.5,275.3428,204.5,279.3428" style="stroke:#181818;stroke-width:1.0;"/><line style="stroke:#181818;stroke-width:1.0;" x1="204.5" x2="204.5" y1="750.1055" y2="782.1055"/><polygon fill="#181818" points="200.5,772.1055,204.5,782.1055,208.5,772.1055,204.5,776.1055" style="stroke:#181818;stroke-width:1.0;"/><line style="stroke:#181818;stroke-width:1.0;" x1="204.5" x2="204.5" y1="830.3711" y2="850.3711"/><polygon fill="#181818" points="200.5,840.3711,204.5,850.3711,208.5,840.3711,204.5,844.3711" style="stroke:#181818;stroke-width:1.0;"/><line style="stroke:#181818;stroke-width:1.0;" x1="204.5" x2="204.5" y1="146.0986" y2="204.7217"/><polygon fill="#181818" points="200.5,194.7217,204.5,204.7217,208.5,194.7217,204.5,198.7217" style="stroke:#181818;stroke-width:1.0;"/><line style="stroke:#181818;stroke-width:1.0;" x1="303.5" x2="328.5" y1="134.0986" y2="134.0986"/><polygon fill="#181818" points="318.5,130.0986,328.5,134.0986,318.5,138.0986,322.5,134.0986" style="stroke:#181818;stroke-width:1.0;"/><line style="stroke:#181818;stroke-width:1.0;" x1="204.5" x2="204.5" y1="898.6367" y2="930.6367"/><polygon fill="#181818" points="200.5,920.6367,204.5,930.6367,208.5,920.6367,204.5,924.6367" style="stroke:#181818;stroke-width:1.0;"/><line style="stroke:#181818;stroke-width:1.0;" x1="204.5" x2="204.5" y1="98.2656" y2="122.0986"/><polygon fill="#181818" points="200.5,112.0986,204.5,122.0986,208.5,112.0986,204.5,116.0986" style="stroke:#181818;stroke-width:1.0;"/><!--SRC=[ZLJBRjim4BphA_OKs8Rb3v0FHT534pGfWWPjZmL5BYNM5AdouKH_toLbMKfY5-L9MkxkpEo3FZ0NYcgp4TYZ4MYuGl-BjyWFkw7JcmqyMtUGsZuNg-1Kqw130O8fFQptXR41WQnjA00UcVUWZBIkOq5P0wosCG1to08ASb3UH_Hm0yUe3JfMAwq2mK6mTFk6Gkm5XOqS2Z93mYgKNFqu1Mk4PG186utui8RGee7LW7vDIHjdO_-lrBCyeFDAJpgVLRYDDVnSEb5MJ0n85DG3F7x9rZF5z5DzYuOk27Z4AfVu1CeyFB0ZyUnrR9JPvw2Hw_Me4_WxZW1tNQ-nGpDRb9bulM56Lt9rJybzW2Cwd_kagKLY08SQcSTtHHnFTMUebGa5UcT_8pyds4z0sYEiZ5tFm4gUlgllMTAhbarnKxMaUjbV5_bHY3bw0DuoqqopCvxHf6spXHEQLYJJohF74dqBkztkSeaciZaXvQk04JZHeuulPtUMG4NjRRTxwJHmQm9JnWCjbfACXzAXfAqn7CkyL-ZABZM_79j_kTYf9F-Pe5hKxNeBaiGyOUE0VifR2RLZXhTR8jrrAcoXZxw5c-moxYrPjAR9-4ER6_QNb-GhehYm-LDfhcpzXQrvIhzFcl53CYgfU4wNBoav-CWvqYF3o4tI4nGT9agpjALy7snVZFhJvry0]--></g></svg>