<?xml version="1.0" encoding="us-ascii" standalone="no"?><svg xmlns="http://www.w3.org/2000/svg" xmlns:xlink="http://www.w3.org/1999/xlink" contentStyleType="text/css" height="1049px" preserveAspectRatio="none" style="width:824px;height:1049px;background:#FFFFFF;" version="1.1" viewBox="0 0 824 1049" width="824px" zoomAndPan="magnify"><defs/><g><path d="M312.75,10 L312.75,26.3105 L292.75,30.3105 L312.75,34.3105 L312.75,50.6211 A0,0 0 0 0 312.75,50.6211 L575.75,50.6211 A0,0 0 0 0 575.75,50.6211 L575.75,20 L565.75,10 L312.75,10 A0,0 0 0 0 312.75,10 " fill="#FEFFDD" style="stroke:#181818;stroke-width:0.5;"/><path d="M565.75,10 L565.75,20 L575.75,20 L565.75,10 " fill="#FEFFDD" style="stroke:#181818;stroke-width:0.5;"/><text fill="#000000" font-family="sans-serif" font-size="13" lengthAdjust="spacing" textLength="242" x="318.75" y="27.5684">Triggered manually or after successful</text><text fill="#000000" font-family="sans-serif" font-size="13" font-weight="bold" lengthAdjust="spacing" textLength="82" x="318.75" y="42.8789">ci-build.yml</text><text fill="#000000" font-family="sans-serif" font-size="13" lengthAdjust="spacing" textLength="98" x="404.75" y="42.8789">on main branch</text><ellipse cx="282.75" cy="30.3105" fill="#222222" rx="10" ry="10" style="stroke:#222222;stroke-width:1.0;"/><rect fill="none" height="935.4336" style="stroke:#000000;stroke-width:1.5;" width="802.25" x="11" y="60.6211"/><path d="M169,60.6211 L169,70.1094 L159,80.1094 L11,80.1094 " fill="none" style="stroke:#000000;stroke-width:1.5;"/><text fill="#000000" font-family="sans-serif" font-size="14" font-weight="bold" lengthAdjust="spacing" textLength="81" x="14" y="75.1563">release.yml</text><text fill="#000000" font-family="sans-serif" font-size="14" lengthAdjust="spacing" textLength="63" x="99" y="75.1563">workflow</text><path d="M654.25,496.8711 L654.25,537.4922 L793.25,537.4922 L793.25,506.8711 L783.25,496.8711 L654.25,496.8711 " fill="#FEFFDD" style="stroke:#181818;stroke-width:0.5;"/><path d="M783.25,496.8711 L783.25,506.8711 L793.25,506.8711 L783.25,496.8711 " fill="#FEFFDD" style="stroke:#181818;stroke-width:0.5;"/><text fill="#000000" font-family="sans-serif" font-size="13" lengthAdjust="spacing" textLength="22" x="660.25" y="514.4395">File</text><text fill="#000000" font-family="sans-serif" font-size="13" font-weight="bold" lengthAdjust="spacing" textLength="77" x="686.25" y="514.4395">release.yml</text><text fill="#000000" font-family="sans-serif" font-size="13" lengthAdjust="spacing" textLength="11" x="767.25" y="514.4395">is</text><text fill="#000000" font-family="sans-serif" font-size="13" lengthAdjust="spacing" textLength="100" x="660.25" y="529.75">generated by PK</text><rect fill="#F1F1F1" height="34.1328" rx="12.5" ry="12.5" style="stroke:#181818;stroke-width:0.5;" width="356" x="104.75" y="97.1094"/><text fill="#000000" font-family="sans-serif" font-size="12" lengthAdjust="spacing" textLength="59" x="114.75" y="118.7109">Verify that</text><text fill="#000000" font-family="sans-serif" font-size="12" font-weight="bold" lengthAdjust="spacing" textLength="76" x="177.75" y="118.7109">ci-build.yml</text><text fill="#000000" font-family="sans-serif" font-size="12" lengthAdjust="spacing" textLength="193" x="257.75" y="118.7109">succeeded for current Git commit</text><rect fill="#F1F1F1" height="34.1328" rx="12.5" ry="12.5" style="stroke:#181818;stroke-width:0.5;" width="249" x="158.25" y="151.2422"/><text fill="#000000" font-family="sans-serif" font-size="12" lengthAdjust="spacing" textLength="41" x="168.25" y="172.8438">Run PK</text><text fill="#000000" font-family="sans-serif" font-size="12" font-weight="bold" lengthAdjust="spacing" textLength="87" x="213.25" y="172.8438">verify-release</text><text fill="#000000" font-family="sans-serif" font-size="12" lengthAdjust="spacing" textLength="93" x="304.25" y="172.8438">as Maven plugin</text><rect fill="none" height="257.418" style="stroke:#000000;stroke-width:1.5;" width="594.5" x="21" y="195.375"/><path d="M153,195.375 L153,204.8633 L143,214.8633 L21,214.8633 " fill="none" style="stroke:#000000;stroke-width:1.5;"/><text fill="#000000" font-family="sans-serif" font-size="14" lengthAdjust="spacing" textLength="17" x="24" y="209.9102">PK</text><text fill="#000000" font-family="sans-serif" font-size="14" font-weight="bold" lengthAdjust="spacing" textLength="101" x="45" y="209.9102">verify-release</text><path d="M492.5,321.9063 L492.5,362.5273 L595.5,362.5273 L595.5,331.9063 L585.5,321.9063 L492.5,321.9063 " fill="#FEFFDD" style="stroke:#181818;stroke-width:0.5;"/><path d="M585.5,321.9063 L585.5,331.9063 L595.5,331.9063 L585.5,321.9063 " fill="#FEFFDD" style="stroke:#181818;stroke-width:0.5;"/><text fill="#000000" font-family="sans-serif" font-size="13" lengthAdjust="spacing" textLength="82" x="498.5" y="339.4746">Implemented</text><text fill="#000000" font-family="sans-serif" font-size="13" lengthAdjust="spacing" textLength="31" x="498.5" y="354.7852">in PK</text><polygon fill="#F1F1F1" points="210.25,231.8633,355.25,231.8633,367.25,244.8184,355.25,257.7734,210.25,257.7734,198.25,244.8184,210.25,231.8633" style="stroke:#181818;stroke-width:0.5;"/><text fill="#000000" font-family="sans-serif" font-size="11" lengthAdjust="spacing" textLength="134" x="210.25" y="242.498">Release date up-to-date?</text><text fill="#000000" font-family="sans-serif" font-size="11" lengthAdjust="spacing" textLength="145" x="210.25" y="255.4531">(allow skipping the release)</text><text fill="#000000" font-family="sans-serif" font-size="11" lengthAdjust="spacing" textLength="60" x="138.25" y="242.498">up-to-date</text><text fill="#000000" font-family="sans-serif" font-size="11" lengthAdjust="spacing" textLength="89" x="367.25" y="242.498">invalid/outdated</text><rect fill="#F1F1F1" height="34.1328" rx="12.5" ry="12.5" style="stroke:#181818;stroke-width:0.5;" width="100" x="79" y="267.7734"/><text fill="#000000" font-family="sans-serif" font-size="12" lengthAdjust="spacing" textLength="41" x="89" y="289.375">Run PK</text><text fill="#000000" font-family="sans-serif" font-size="12" font-weight="bold" lengthAdjust="spacing" textLength="35" x="134" y="289.375">verify</text><rect fill="#F1F1F1" height="34.1328" rx="12.5" ry="12.5" style="stroke:#181818;stroke-width:0.5;" width="192" x="33" y="333.0391"/><text fill="#000000" font-family="sans-serif" font-size="12" lengthAdjust="spacing" textLength="172" x="43" y="354.6406">Run additional release checks</text><path d="M227.5,396.3496 L227.5,412.6602 L207.5,416.6602 L227.5,420.6602 L227.5,436.9707 A0,0 0 0 0 227.5,436.9707 L380.5,436.9707 A0,0 0 0 0 380.5,436.9707 L380.5,406.3496 L370.5,396.3496 L227.5,396.3496 A0,0 0 0 0 227.5,396.3496 " fill="#FEFFDD" style="stroke:#181818;stroke-width:0.5;"/><path d="M370.5,396.3496 L370.5,406.3496 L380.5,406.3496 L370.5,396.3496 " fill="#FEFFDD" style="stroke:#181818;stroke-width:0.5;"/><text fill="#000000" font-family="sans-serif" font-size="13" lengthAdjust="spacing" textLength="132" x="233.5" y="413.918">Required for creating</text><text fill="#000000" font-family="sans-serif" font-size="13" lengthAdjust="spacing" textLength="116" x="233.5" y="429.2285">the GitHub release</text><rect fill="#F1F1F1" height="48.2656" rx="12.5" ry="12.5" style="stroke:#181818;stroke-width:0.5;" width="157" x="50.5" y="392.5273"/><text fill="#000000" font-family="sans-serif" font-size="12" lengthAdjust="spacing" textLength="137" x="60.5" y="414.1289">Write changelog content</text><text fill="#000000" font-family="sans-serif" font-size="12" lengthAdjust="spacing" textLength="121" x="60.5" y="428.2617">to $GITHUB_OUTPUT</text><rect fill="#F1F1F1" height="34.1328" rx="12.5" ry="12.5" style="stroke:#181818;stroke-width:0.5;" width="72" x="400.5" y="267.7734"/><text fill="#000000" font-family="sans-serif" font-size="12" lengthAdjust="spacing" textLength="52" x="410.5" y="289.375">Fail build</text><ellipse cx="436.5" cy="344.0391" fill="none" rx="11" ry="11" style="stroke:#222222;stroke-width:1.0;"/><ellipse cx="436.5" cy="344.0391" fill="#222222" rx="6" ry="6" style="stroke:#222222;stroke-width:1.0;"/><path d="M400.25,469.5488 L400.25,485.8594 L380.25,489.8594 L400.25,493.8594 L400.25,510.1699 A0,0 0 0 0 400.25,510.1699 L644.25,510.1699 A0,0 0 0 0 644.25,510.1699 L644.25,479.5488 L634.25,469.5488 L400.25,469.5488 A0,0 0 0 0 400.25,469.5488 " fill="#FEFFDD" style="stroke:#181818;stroke-width:0.5;"/><path d="M634.25,469.5488 L634.25,479.5488 L644.25,479.5488 L634.25,469.5488 " fill="#FEFFDD" style="stroke:#181818;stroke-width:0.5;"/><text fill="#000000" font-family="sans-serif" font-size="13" lengthAdjust="spacing" textLength="223" x="406.25" y="487.1172">Running tests not required because</text><text fill="#000000" font-family="sans-serif" font-size="13" font-weight="bold" lengthAdjust="spacing" textLength="82" x="406.25" y="502.4277">ci-build.yml</text><text fill="#000000" font-family="sans-serif" font-size="13" lengthAdjust="spacing" textLength="119" x="492.25" y="502.4277">already succeeded.</text><rect fill="#F1F1F1" height="34.1328" rx="12.5" ry="12.5" style="stroke:#181818;stroke-width:0.5;" width="195" x="185.25" y="472.793"/><text fill="#000000" font-family="sans-serif" font-size="12" lengthAdjust="spacing" textLength="22" x="195.25" y="494.3945">Run</text><text fill="#000000" font-family="sans-serif" font-size="12" font-weight="bold" lengthAdjust="spacing" textLength="149" x="221.25" y="494.3945">mvn verify -DskipTests</text><rect fill="#F1F1F1" height="34.1328" rx="12.5" ry="12.5" style="stroke:#181818;stroke-width:0.5;" width="202" x="181.75" y="593.6475"/><text fill="#000000" font-family="sans-serif" font-size="12" lengthAdjust="spacing" textLength="22" x="191.75" y="615.249">Run</text><text fill="#000000" font-family="sans-serif" font-size="12" font-weight="bold" lengthAdjust="spacing" textLength="156" x="217.75" y="615.249">mvn deploy -DskipTests</text><polygon fill="#F1F1F1" points="187.25,545.1699,378.25,545.1699,390.25,557.1699,378.25,569.1699,187.25,569.1699,175.25,557.1699,187.25,545.1699" style="stroke:#181818;stroke-width:0.5;"/><text fill="#000000" font-family="sans-serif" font-size="11" lengthAdjust="spacing" textLength="46" x="286.75" y="579.8047">required</text><text fill="#000000" font-family="sans-serif" font-size="11" lengthAdjust="spacing" textLength="191" x="187.25" y="561.3271">Maven Central deployment required</text><polygon fill="#F1F1F1" points="282.75,647.7803,294.75,659.7803,282.75,671.7803,270.75,659.7803,282.75,647.7803" style="stroke:#181818;stroke-width:0.5;"/><path d="M372.25,751.7354 L372.25,760.3906 L352.25,764.3906 L372.25,768.3906 L372.25,777.0459 A0,0 0 0 0 372.25,777.0459 L577.25,777.0459 A0,0 0 0 0 577.25,777.0459 L577.25,761.7354 L567.25,751.7354 L372.25,751.7354 A0,0 0 0 0 372.25,751.7354 " fill="#FEFFDD" style="stroke:#181818;stroke-width:0.5;"/><path d="M567.25,751.7354 L567.25,761.7354 L577.25,761.7354 L567.25,751.7354 " fill="#FEFFDD" style="stroke:#181818;stroke-width:0.5;"/><text fill="#000000" font-family="sans-serif" font-size="13" lengthAdjust="spacing" textLength="184" x="378.25" y="769.3037">List of artifacts customizable</text><rect fill="#F1F1F1" height="48.2656" rx="12.5" ry="12.5" style="stroke:#181818;stroke-width:0.5;" width="139" x="213.25" y="740.2578"/><text fill="#000000" font-family="sans-serif" font-size="12" lengthAdjust="spacing" textLength="119" x="223.25" y="761.8594">Calculate checksums</text><text fill="#000000" font-family="sans-serif" font-size="12" lengthAdjust="spacing" textLength="112" x="223.25" y="775.9922">for release artifacts</text><path d="M401.75,827.3457 L401.75,843.6563 L381.75,847.6563 L401.75,851.6563 L401.75,867.9668 A0,0 0 0 0 401.75,867.9668 L607.75,867.9668 A0,0 0 0 0 607.75,867.9668 L607.75,837.3457 L597.75,827.3457 L401.75,827.3457 A0,0 0 0 0 401.75,827.3457 " fill="#FEFFDD" style="stroke:#181818;stroke-width:0.5;"/><path d="M597.75,827.3457 L597.75,837.3457 L607.75,837.3457 L597.75,827.3457 " fill="#FEFFDD" style="stroke:#181818;stroke-width:0.5;"/><text fill="#000000" font-family="sans-serif" font-size="13" lengthAdjust="spacing" textLength="185" x="407.75" y="844.9141">Reads changelog content and</text><text fill="#000000" font-family="sans-serif" font-size="13" lengthAdjust="spacing" textLength="182" x="407.75" y="860.2246">artifacts from previous steps</text><rect fill="#F1F1F1" height="48.2656" rx="12.5" ry="12.5" style="stroke:#181818;stroke-width:0.5;" width="198" x="183.75" y="823.5234"/><text fill="#000000" font-family="sans-serif" font-size="12" lengthAdjust="spacing" textLength="154" x="193.75" y="845.125">Create GitHub release and</text><text fill="#000000" font-family="sans-serif" font-size="12" lengthAdjust="spacing" textLength="178" x="193.75" y="859.2578">attach artifacts and checksums</text><polygon fill="#F1F1F1" points="231.25,691.7803,334.25,691.7803,346.25,703.7803,334.25,715.7803,231.25,715.7803,219.25,703.7803,231.25,691.7803" style="stroke:#181818;stroke-width:0.5;"/><text fill="#000000" font-family="sans-serif" font-size="11" lengthAdjust="spacing" textLength="63" x="286.75" y="726.415">not skipped</text><text fill="#000000" font-family="sans-serif" font-size="11" lengthAdjust="spacing" textLength="103" x="231.25" y="707.9375">Skip GitHub release</text><polygon fill="#F1F1F1" points="282.75,891.7891,294.75,903.7891,282.75,915.7891,270.75,903.7891,282.75,891.7891" style="stroke:#181818;stroke-width:0.5;"/><rect fill="#F1F1F1" height="48.2656" rx="12.5" ry="12.5" style="stroke:#181818;stroke-width:0.5;" width="147" x="209.25" y="935.7891"/><text fill="#000000" font-family="sans-serif" font-size="12" lengthAdjust="spacing" textLength="127" x="219.25" y="957.3906">Send Slack notification</text><text fill="#000000" font-family="sans-serif" font-size="12" lengthAdjust="spacing" textLength="116" x="219.25" y="971.5234">for success &amp; failure</text><ellipse cx="282.75" cy="1027.0547" fill="none" rx="11" ry="11" style="stroke:#222222;stroke-width:1.0;"/><ellipse cx="282.75" cy="1027.0547" fill="#222222" rx="6" ry="6" style="stroke:#222222;stroke-width:1.0;"/><line style="stroke:#181818;stroke-width:1.0;" x1="282.75" x2="282.75" y1="131.2422" y2="151.2422"/><polygon fill="#181818" points="278.75,141.2422,282.75,151.2422,286.75,141.2422,282.75,145.2422" style="stroke:#181818;stroke-width:1.0;"/><line style="stroke:#181818;stroke-width:1.0;" x1="129" x2="129" y1="301.9063" y2="333.0391"/><polygon fill="#181818" points="125,323.0391,129,333.0391,133,323.0391,129,327.0391" style="stroke:#181818;stroke-width:1.0;"/><line style="stroke:#181818;stroke-width:1.0;" x1="129" x2="129" y1="367.1719" y2="392.5273"/><polygon fill="#181818" points="125,382.5273,129,392.5273,133,382.5273,129,386.5273" style="stroke:#181818;stroke-width:1.0;"/><line style="stroke:#181818;stroke-width:1.0;" x1="436.5" x2="436.5" y1="301.9063" y2="333.0391"/><polygon fill="#181818" points="432.5,323.0391,436.5,333.0391,440.5,323.0391,436.5,327.0391" style="stroke:#181818;stroke-width:1.0;"/><line style="stroke:#181818;stroke-width:1.0;" x1="198.25" x2="129" y1="244.8184" y2="244.8184"/><line style="stroke:#181818;stroke-width:1.0;" x1="129" x2="129" y1="244.8184" y2="267.7734"/><polygon fill="#181818" points="125,257.7734,129,267.7734,133,257.7734,129,261.7734" style="stroke:#181818;stroke-width:1.0;"/><line style="stroke:#181818;stroke-width:1.0;" x1="367.25" x2="436.5" y1="244.8184" y2="244.8184"/><line style="stroke:#181818;stroke-width:1.0;" x1="436.5" x2="436.5" y1="244.8184" y2="267.7734"/><polygon fill="#181818" points="432.5,257.7734,436.5,267.7734,440.5,257.7734,436.5,261.7734" style="stroke:#181818;stroke-width:1.0;"/><line style="stroke:#181818;stroke-width:1.0;" x1="129" x2="129" y1="440.793" y2="445.793"/><line style="stroke:#181818;stroke-width:1.0;" x1="129" x2="282.75" y1="445.793" y2="445.793"/><line style="stroke:#181818;stroke-width:1.0;" x1="282.75" x2="282.75" y1="445.793" y2="472.793"/><polygon fill="#181818" points="278.75,462.793,282.75,472.793,286.75,462.793,282.75,466.793" style="stroke:#181818;stroke-width:1.0;"/><line style="stroke:#181818;stroke-width:1.0;" x1="282.75" x2="282.75" y1="185.375" y2="231.8633"/><polygon fill="#181818" points="278.75,221.8633,282.75,231.8633,286.75,221.8633,282.75,225.8633" style="stroke:#181818;stroke-width:1.0;"/><line style="stroke:#181818;stroke-width:1.0;" x1="282.75" x2="282.75" y1="569.1699" y2="593.6475"/><polygon fill="#181818" points="278.75,583.6475,282.75,593.6475,286.75,583.6475,282.75,587.6475" style="stroke:#181818;stroke-width:1.0;"/><line style="stroke:#181818;stroke-width:1.0;" x1="390.25" x2="402.25" y1="557.1699" y2="557.1699"/><polygon fill="#181818" points="398.25,600.7139,402.25,610.7139,406.25,600.7139,402.25,604.7139" style="stroke:#181818;stroke-width:1.0;"/><line style="stroke:#181818;stroke-width:1.0;" x1="402.25" x2="402.25" y1="557.1699" y2="659.7803"/><line style="stroke:#181818;stroke-width:1.0;" x1="402.25" x2="294.75" y1="659.7803" y2="659.7803"/><polygon fill="#181818" points="304.75,655.7803,294.75,659.7803,304.75,663.7803,300.75,659.7803" style="stroke:#181818;stroke-width:1.0;"/><line style="stroke:#181818;stroke-width:1.0;" x1="282.75" x2="282.75" y1="627.7803" y2="647.7803"/><polygon fill="#181818" points="278.75,637.7803,282.75,647.7803,286.75,637.7803,282.75,641.7803" style="stroke:#181818;stroke-width:1.0;"/><line style="stroke:#181818;stroke-width:1.0;" x1="282.75" x2="282.75" y1="506.9258" y2="545.1699"/><polygon fill="#181818" points="278.75,535.1699,282.75,545.1699,286.75,535.1699,282.75,539.1699" style="stroke:#181818;stroke-width:1.0;"/><line style="stroke:#181818;stroke-width:1.0;" x1="282.75" x2="282.75" y1="788.5234" y2="823.5234"/><polygon fill="#181818" points="278.75,813.5234,282.75,823.5234,286.75,813.5234,282.75,817.5234" style="stroke:#181818;stroke-width:1.0;"/><line style="stroke:#181818;stroke-width:1.0;" x1="282.75" x2="282.75" y1="715.7803" y2="740.2578"/><polygon fill="#181818" points="278.75,730.2578,282.75,740.2578,286.75,730.2578,282.75,734.2578" style="stroke:#181818;stroke-width:1.0;"/><line style="stroke:#181818;stroke-width:1.0;" x1="346.25" x2="617.75" y1="703.7803" y2="703.7803"/><polygon fill="#181818" points="613.75,796.0234,617.75,806.0234,621.75,796.0234,617.75,800.0234" style="stroke:#181818;stroke-width:1.0;"/><line style="stroke:#181818;stroke-width:1.0;" x1="617.75" x2="617.75" y1="703.7803" y2="903.7891"/><line style="stroke:#181818;stroke-width:1.0;" x1="617.75" x2="294.75" y1="903.7891" y2="903.7891"/><polygon fill="#181818" points="304.75,899.7891,294.75,903.7891,304.75,907.7891,300.75,903.7891" style="stroke:#181818;stroke-width:1.0;"/><line style="stroke:#181818;stroke-width:1.0;" x1="282.75" x2="282.75" y1="871.7891" y2="891.7891"/><polygon fill="#181818" points="278.75,881.7891,282.75,891.7891,286.75,881.7891,282.75,885.7891" style="stroke:#181818;stroke-width:1.0;"/><line style="stroke:#181818;stroke-width:1.0;" x1="282.75" x2="282.75" y1="671.7803" y2="691.7803"/><polygon fill="#181818" points="278.75,681.7803,282.75,691.7803,286.75,681.7803,282.75,685.7803" style="stroke:#181818;stroke-width:1.0;"/><line style="stroke:#181818;stroke-width:1.0;" x1="282.75" x2="282.75" y1="915.7891" y2="935.7891"/><polygon fill="#181818" points="278.75,925.7891,282.75,935.7891,286.75,925.7891,282.75,929.7891" style="stroke:#181818;stroke-width:1.0;"/><line style="stroke:#181818;stroke-width:1.0;" x1="282.75" x2="282.75" y1="40.3105" y2="97.1094"/><polygon fill="#181818" points="278.75,87.1094,282.75,97.1094,286.75,87.1094,282.75,91.1094" style="stroke:#181818;stroke-width:1.0;"/><line style="stroke:#181818;stroke-width:1.0;" x1="282.75" x2="282.75" y1="984.0547" y2="1016.0547"/><polygon fill="#181818" points="278.75,1006.0547,282.75,1016.0547,286.75,1006.0547,282.75,1010.0547" style="stroke:#181818;stroke-width:1.0;"/><!--SRC=[TLJBRjim4BpxA_PG58u0ftVxKA0fya1RD72SzXAWM5ChUM6ALFbmu7vzbv8enrPx4xclcPsXV40NPiO60iVrBim0Dl9HawCI6ZGHjJw2TO1L80S-AaNULr5BOb4eNcmZw_BwsEYY06kaX0ri7Hgrcv4f8NMUrSx6Lj8TQK9FG_QhTVjAsrVfT3OVu9OrJTBPTx6Q33aCWcvxXCSlSZUE0LZ-8CVL4S8EmnHU1vvAAQs4a8hEaGbmnm6KRHeEgzHX7OsqbU93rsenW91ozF0D3sIWrR5cax9xOlzCxy1Uy09uQ5fDZOobShXXqxCuuo7NrNpTju9Is49i5y4kqkV75pCNKUmh-3stBPjQwCgKFllgAfqCp4y5LyEaIsf5iNeRmRBamDQWphr0xKZj_PZrqt58bsXgqhQMhGaF4rvCiF3kxc5p__pfr_VdpUFp9fTC-0EiwNTabpLmX44OZD74H0IvZziCOWYTBOUqW9kpEQ3cyeED8T4iHvwto1ewuJCE7soRTypLu9bEl2nvKJG70_rYOF4vhNP3FlX-IHSyfC1qUqyPAIXW1rPRKXW7r1C3eXQ-vV5anEjp-uhelSDkPArEX2YfrVQO_39EoFgEvzceOC-XhvbooDHbo9D4BjQSsoOodQ_6pZUeLTGOiXrYurzC4Y-xH7uWNA4AWr4ccdzb7y1MfpnvUY98mtzmgsbg_ULDSiMb3m1D_sGm15IxDzqaS8Bs7mnhsRkVMdTi2c_wLSusq3ewi8rUh4EjlmIPTxbyIfTF6jK-XRXYXUaDIIXjQFXRmdken9BHqMfsCbxov5y0]--></g></svg>